<svg id="Layer_1" xmlns="http://www.w3.org/2000/svg" viewBox="0 0 94 18"><style>.st0{fill:#8492a6}</style><path class="st0" d="M9.5 6.6c1.1-.6 1.7-1.5 1.7-2.9 0-1.2-.4-2.2-1.2-2.9C9.2.3 8.2 0 6.9 0H0v14.5h7c1.4 0 2.4-.3 3.2-.9 1-.7 1.5-1.9 1.5-3.5.1-1.6-.7-3-2.2-3.5zM3.8 3.2h2.4c.7 0 1.3.4 1.3 1.2 0 .8-.5 1.3-1.3 1.3H3.8V3.2zm2.8 8.1H3.8v-3h2.7c.9 0 1.5.5 1.5 1.5s-.6 1.5-1.4 1.5zm73.7-5.4l-.1-1.8h-3.4v10.4h3.5v-4.3c0-2.3 1.2-3.4 3.3-3h.1V4h-.5c-1.2 0-2.2.5-2.9 1.9zm10.3-1.7v1.1h-.1c-.5-.9-1.4-1.4-2.7-1.4-2.3 0-3.9 2.3-3.9 5.3 0 3.2 1.9 4.9 4 4.9 1.1 0 1.8-.5 2.4-1.2h.1v.8c0 1.1-.4 1.8-1.5 1.8-.8 0-1.3-.4-1.4-.9h-3.4c.3 2.3 2.2 3.4 4.9 3.4 1.4 0 2.7-.3 3.5-1.1.8-.8 1.4-2.1 1.4-3.7v-9h-3.3zm-1.5 7.2c-1 0-1.6-1-1.6-2.4s.6-2.3 1.6-2.3 1.6 1 1.6 2.3c0 1.3-.6 2.4-1.6 2.4z"/><path class="st0" d="M12.4 0H16V14.5H12.4z"/><path class="st0" d="M71.2 3.8c-3 0-5.1 2.3-5.1 5.5 0 3.3 2.1 5.5 5.2 5.5 2.5 0 4.3-1.2 4.9-3.6h-3.4c-.2.7-.8 1-1.4 1-1.1 0-1.7-.7-1.8-1.9h6.7c0-2.1-.5-4-1.6-5.1-.9-.9-2-1.4-3.5-1.4zm-1.6 4.4c.1-1.2.7-1.9 1.6-1.9.8 0 1.5.7 1.6 1.9h-3.2zM22 3.9c-3.2 0-5.2 2.2-5.2 5.5s2.1 5.5 5.2 5.5c3.2 0 5.2-2.2 5.2-5.5S25.1 3.9 22 3.9zm-.1 8.4c-1.1 0-1.6-1.1-1.6-3 0-1.8.5-2.9 1.6-2.9s1.6 1.1 1.6 2.9c.1 1.9-.5 3-1.6 3zm39.8-8.4c-1.3 0-2.2.5-2.9 1.4h-.1V0h-3.5v14.5h3.4v-1.3c.6 1.2 1.7 1.7 2.8 1.7 2.6 0 4.2-2 4.2-5.6.1-3.1-1.4-5.4-3.9-5.4zM60.4 12c-1.1 0-1.8-1.1-1.8-2.8 0-1.7.7-2.8 1.8-2.8s1.7 1.1 1.7 2.8c0 1.8-.6 2.8-1.7 2.8zM32.8 3.9c-3.2 0-5.2 2.2-5.2 5.5s2.1 5.5 5.2 5.5c3.2 0 5.2-2.2 5.2-5.5s-2-5.5-5.2-5.5zm1.6 5.5c0 1.8-.6 3-1.6 3-1.1 0-1.6-1.1-1.6-3 0-1.8.5-2.9 1.6-2.9 1-.1 1.6 1.1 1.6 2.9zM51 3.9c-1.2 0-2.3.4-3.1 1.8h-.1c-.5-1.1-1.4-1.8-2.7-1.8-1.4 0-2.4.7-3 1.9H42V4.2h-3.4v10.4h3.5V8.9c0-1.1.4-2 1.3-2s1.2.7 1.2 1.8v5.9h3.5V8.9c0-1.1.4-2 1.3-2s1.2.7 1.2 1.8v5.9h3.5V8c.2-2.4-.8-4.1-3.1-4.1z"/></svg>