<svg id="Layer_1" data-name="Layer 1" xmlns="http://www.w3.org/2000/svg" xmlns:xlink="http://www.w3.org/1999/xlink" viewBox="0 0 184 184">
    <defs>
        <clipPath id="clip-path">
            <path fill="none" clip-rule="evenodd" d="M41.73,68.22V112.9c0,13.18,22.5,23.87,50.27,23.87s50.27-10.69,50.27-23.87V68.22Z" />
        </clipPath>
    </defs>
    <path fill="35314c" fill-rule="evenodd" opacity="0.15" d="M156.77,113.87c0,15.08-25.75,27.3-57.52,27.3S41.73,129,41.73,113.87s25.75-27.3,57.52-27.3,57.52,12.22,57.52,27.3" />
    <path fill="#63a6e4" fill-rule="evenodd" d="M41.73,68.22V112.9c0,13.18,22.5,23.86,50.27,23.86s50.27-10.68,50.27-23.86V68.22Z" />
    <g clip-path="url(#clip-path)">
        <polygon opacity="0.6" fill="#27537b" fill-rule="evenodd" points="41.73 82.91 136.16 134.8 142.27 131.98 142.27 86.68 97.92 99.03 41.73 82.91" />
    </g>
    <polygon fill="#63a6e4" fill-rule="evenodd" points="184 71.32 92 44.42 92 44.43 86.08 42.83 0 66.79 92 93.69 97.92 95.29 184 71.32" />
    <polygon fill="#9fccf6" fill-rule="evenodd" points="0 70.53 92 97.43 92 97.42 97.92 99.03 184 75.06 184 71.32 97.92 95.29 92 93.69 0 66.79 0 70.53" />
    <path fill="#27537b" fill-rule="evenodd" d="M102,64.51c0,2.62-4.48,4.74-10,4.74s-10-2.12-10-4.74,4.48-4.74,10-4.74,10,2.12,10,4.74" />
    <path stroke="#27537b" stroke-linecap="round" stroke-miterlimit="10"  stroke-width="1.7" fill="none" d="M92,64.51l37.75,14.81c3.27,1.33,4.48,4.79,4.48,9v11.81" />
    <path fill="#1c3c59" fill-rule="evenodd" d="M83.54,66c0-2.62,4.47-4.74,10-4.74a15.36,15.36,0,0,1,8,1.95c-1.18-2-5-3.46-9.58-3.46-5.52,0-10,2.12-10,4.74A3.55,3.55,0,0,0,84,67.3,2.55,2.55,0,0,1,83.54,66" />
    <path fill="#fff" fill-rule="evenodd" d="M137.85,104.19a3.64,3.64,0,1,1-3.61-4,3.84,3.84,0,0,1,3.61,4" />
    <path fill="#fff" fill-rule="evenodd" d="M130.75,120.7l-3.33-7.84c0-3,3-5.45,6.82-5.45s6.81,2.44,6.81,5.45l-3.37,7.93a3.69,3.69,0,0,1-3.47,2.25A3.83,3.83,0,0,1,130.75,120.7Z" />
</svg>