<svg id="Layer_1" data-name="Layer 1" xmlns="http://www.w3.org/2000/svg" viewBox="0 0 184 184">
    <path id="Fill_1" data-name="Fill 1"  fill="#3b4755" d="M94.79,151.4c5,8.48,13.77,12.47,19.48,8.92s6.23-13.31,1.17-21.79S101.66,126.06,96,129.61s-6.23,13.3-1.17,21.79" />
    <path id="Fill_3" data-name="Fill 3" fill="#747885" d="M95.57,148.35c3.26,6.21,8.73,9.7,12.22,7.78s3.67-8.49.41-14.71-8.72-9.69-12.21-7.78-3.68,8.5-.42,14.71" />
    <path id="Fill_5" data-name="Fill 5" fill="#8c8e9a" d="M99.46,145.86c1.27,2.79,3.7,4.38,5.44,3.56s2.15-3.75.89-6.54-3.71-4.38-5.44-3.55-2.15,3.75-.89,6.54" />
    <path id="Fill_7" data-name="Fill 7" fill="#192217" d="M91.35,140.73A11.72,11.72,0,0,1,96,129.62a8.48,8.48,0,0,1,3.1-1.18h0C86.69,123.24,88.67,141,88.67,141Z" />
    <path id="Fill_9" data-name="Fill 9" fill="#3b4755" d="M7.28,100.14c4.51,8.6,12.93,13,18.82,9.73s7-12.82,2.49-21.42-12.93-13-18.81-9.72-7,12.81-2.5,21.41" />
    <path id="Fill_11" data-name="Fill 11" fill="#747885" d="M8.54,98c3.26,6.21,8.73,9.69,12.21,7.78s3.68-8.5.42-14.71S12.44,81.33,9,83.25,5.28,91.75,8.54,98" />
    <path id="Fill_13" data-name="Fill 13" fill="#8c8e9a" d="M12.29,95.09c.87,2.51,3.06,4,4.87,3.35a4.4,4.4,0,0,0,1.69-5.76c-.88-2.5-3.06-4-4.87-3.33a4.38,4.38,0,0,0-1.7,5.74" />
    <path id="Fill_15" data-name="Fill 15" fill="#1d2621" d="M12.34,77.82a8.37,8.37,0,0,0-2.57.9A10.28,10.28,0,0,0,4.9,85.8s-1.29,1.79-1.8-.18c0,0-1.8-10.89,8.85-8,0,0,.14.06.39.2Z" />
    <g id="Group_19-2" data-name="Group 19-2">
        <path id="Fill_17" data-name="Fill 17" fill="#63a6e4" d="M184,115.79a55.59,55.59,0,0,1-51.45,31.36s-9.49,1.84-15.78-11.28a50.19,50.19,0,0,0-18.22-17.32A588.58,588.58,0,0,1,8.74,60s-1.41,2.41-7.57,1.8c0,0-.9-9.67,13.22-18.07l20.52-13S50.32,19.36,63.4,23L95.09,34.71s19.36,8.92,43.37,31.49l11.93,11.15s19.12,13.12,24.5,18.77A27.76,27.76,0,0,1,184,115.79" />
    </g>
    <path id="Fill_20" data-name="Fill 20" fill="#27537b" d="M140.55,141.52c-.91.11,1.47-1,1.84-1.76a7.08,7.08,0,0,0-1.69-4.18s24.76-3.51,36.32-23.39a17.25,17.25,0,0,1,.18,3.52s.13,2.73,1.72,2.32c0,0-2.92,8.09-15.62,16.53,0,0-7.41,5.18-22.75,7" />
    <g id="Group_24-2" data-name="Group 24-2">
        <path id="Fill_22" data-name="Fill 22" fill="#3c80be" d="M8.75,60s-1.41,2.41-7.57,1.79A68,68,0,0,0,.09,77.87,12.88,12.88,0,0,0,3,85.53l.07.09s-1.41-8.57,5.71-8.49A9.3,9.3,0,0,1,14,78.81,30,30,0,0,1,25.43,95.53a22.74,22.74,0,0,1,.84,6,6.58,6.58,0,0,0,4.42,5.85l58,33.59s-2.18-19.42,12.19-11.68a44.41,44.41,0,0,1,14.37,24.8s12.62,9.77,42.34-2.06a47.7,47.7,0,0,0,23.17-19.38l.22-.37a18.67,18.67,0,0,0,2.62-8.57l.41-7.95a55.55,55.55,0,0,1-49.45,31.35c-.89,0-1.79,0-2.68.09-2.28.13-9.82-.35-15.1-11.36a50.19,50.19,0,0,0-18.22-17.32A588.75,588.75,0,0,1,8.75,60" />
    </g>
    <path id="Fill_25" data-name="Fill 25" fill="#27537b" d="M118.51,50.25c-3.32,2-32.34,18.88-44.53,24.36a.54.54,0,0,0-.26.72l0,.06,18.53,29.94a5.12,5.12,0,0,0,6.29,2.6s39.5-13.82,51.16-29.28a.55.55,0,0,0-.06-.71c-1.9-1.9-12.09-12-30.56-27.64a.53.53,0,0,0-.6,0" />
    <path id="Fill_27" data-name="Fill 27" fill="#27537b" d="M47.6,60.73,43.08,76.55a1.07,1.07,0,0,1-1.3.75.89.89,0,0,1-.34-.16l-24-17.08a2.71,2.71,0,0,1-.74-.77,2.9,2.9,0,0,1,.75-3.92A7.38,7.38,0,0,1,21.51,54a47.53,47.53,0,0,1,25.87,6.1.57.57,0,0,1,.22.61" />
    <path id="Fill_29" data-name="Fill 29" fill="#27537b" d="M51.36,61.9c2,.7,17.58,7,34,42.44,0,0,1,2.54,0,3.76,0,0-.6,1.05-3.59-1.58l-34.81-25s-1.66-1-1-4.17c0,0,2.27-13.45,5-15.38a.53.53,0,0,1,.46-.06" />
    <path id="Fill_31" data-name="Fill 31" fill="#63a6e4" d="M79.25,101.89a11,11,0,0,1,1.44,4,1.12,1.12,0,0,1-.92,1.18,14.28,14.28,0,0,1-2.06.15c-3.15,0-7.77,0-7.77,0a3.47,3.47,0,0,1-2.73-1.11,1.66,1.66,0,0,1,.31-2.3,25.72,25.72,0,0,1,7.3-3.91s2.05-1.25,4.43,1.9" />
    <path id="Fill_33" data-name="Fill 33" fill="#27537b" d="M80.4,104.49a7.17,7.17,0,0,1,.29,1.45,1.12,1.12,0,0,1-.92,1.18,14.41,14.41,0,0,1-2.07.15c-3.14,0-7.76,0-7.76,0a3.47,3.47,0,0,1-2.73-1.11,1.64,1.64,0,0,1-.25-1.54h0a3.37,3.37,0,0,0,2.17,1,40.32,40.32,0,0,0,11.27-1.12Z" />
    <path id="Fill_35" data-name="Fill 35" fill="#27537b" d="M34.92,30.77l-20.53,13s-5.07,4.66-4,6.43c0,0,.19,1.31,3.4,0a72.18,72.18,0,0,0,6.94-3.44.5.5,0,0,0,.24-.29c.41-1.15,3.07-7.56,13.92-15.69" />
    <path id="Fill_37" data-name="Fill 37" fill="#d2e8f7" d="M1.18,61.83a15.86,15.86,0,0,1,4-10.29h0C11.14,55.6,8.75,60,8.75,60s-1.41,2.41-7.57,1.8" />
    <path id="Fill_39" data-name="Fill 39" fill="#63a6e4" d="M144,71.4l-5.45-5.08s2.35-6.47,5.08-6.57S144,71.4,144,71.4" />
    <path id="Fill_41" data-name="Fill 41" fill="#27537b" d="M183.17,133.31a47.86,47.86,0,0,1-21.06,21.13,71.93,71.93,0,0,1-39.38,6.82c-5.59-.39-7.06-3.36-7.06-3.36a11.83,11.83,0,0,1-.45-3.79s12.63,9.77,42.34-2.06a47.71,47.71,0,0,0,23.17-19.39l.23-.37a18.84,18.84,0,0,0,1.91-4.39s1.64,1.08.3,5.41" />
    <path id="Fill_43" data-name="Fill 43" fill="#434f4b" d="M183.57,123.72l.27-5a21.6,21.6,0,0,0-2.4,8.07c0,1.42,2.13-3.12,2.13-3.12" />
    <path id="Fill_45" data-name="Fill 45" fill="#27537b" d="M177.71,129.53S168.34,143.7,145,148.25a3.06,3.06,0,0,0,3,3.15h.1a43.1,43.1,0,0,0,18.05-6.3c7.36-5.25,10.78-8.22,12.83-12.51.68-3.22-1.2-3.06-1.2-3.06" />
    <path id="Fill_47" data-name="Fill 47" fill="#27537b" d="M144.29,153.19a5.58,5.58,0,0,0-4.43-2.43l-11.71-.46a6.64,6.64,0,0,0-3.57.84,2.47,2.47,0,0,0-1.43,2.36c.07,2.37,2.92,2.58,2.92,2.58l11.39-.28s6-.38,6.83-2.61" />
    <path id="Fill_49" data-name="Fill 49" fill="#e3f4ff" d="M142.39,139.76s.17-6-9.41-8.74c0,0-10.61-4.2-15.65-1.93,0,0-3,2.89,4.19,10.16a16.55,16.55,0,0,0,8.64,3.49c3.76-.26,10.6.43,12.23-3" />
    <path id="Fill_51" data-name="Fill 51" fill="#e3f4ff" d="M182.35,107.31A24.28,24.28,0,0,0,175.73,97s-3.79-1.72-1.1,6.28a36.5,36.5,0,0,1,2.58,12.42s.17,3.59,2.54,1.92,3.38-7.45,2.6-10.32" />
</svg>