<svg id="Layer_1" data-name="Layer 1" xmlns="http://www.w3.org/2000/svg" viewBox="0 0 184 184">
    <polygon fill="#27537c" points="12.46 141.67 98.01 114.46 172.34 141.67 86.85 168.85 12.46 141.67" />
    <polygon fill="#27537c" points="134.81 34.07 181.34 74.76 181.33 74.77 120.19 53.78 134.81 34.07" />
    <polygon fill="#66a3d8" points="86.78 98.83 86.78 171.7 169.64 145.35 169.64 64.54 134.81 34.07 86.78 98.83" />
    <polygon fill="#3d80bd" points="86.78 171.7 86.78 98.83 15.15 74.24 15.15 145.35 86.78 171.7" />
    <polygon fill="#27537c" points="70.6 129.07 70.6 109.54 51.4 102.95 51.4 122.01 70.6 129.07" />
    <polygon fill="#1c3c59" points="52.48 122.41 52.48 103.32 51.4 102.95 51.4 122.01 52.48 122.41" />
    <polygon fill="#b5d4ef" points="80.31 100.78 134.16 28.14 48.93 9.45 0 73.21 80.31 100.78" />
    <polygon fill="#3b7bb6" points="83.55 103.19 80.31 100.78 134.16 28.14 184 71.72 181.34 74.76 134.81 34.07 83.55 103.19" />
    <polygon fill="#27537c" points="83.55 103.19 0 73.21 80.31 100.78 83.55 103.19" />
    <polygon fill="#27537c" points="139 155.1 117.43 161.96 117.43 113.42 139 106.56 139 155.1" />
    <polygon fill="#1c3c59" points="139 155.1 136.84 155.78 136.84 107.24 139 106.56 139 155.1" />
    <polygon fill="#27537c" points="169.64 67.23 133.59 35.71 134.81 34.07 169.64 64.54 169.64 67.23" />
    <polygon fill="#27537c" points="86.72 174.55 12.46 147.42 12.46 141.67 86.85 168.85 172.34 141.67 172.34 147.33 86.72 174.55" />
    <polygon fill="#b5d4ef" points="86.72 174.55 172.34 147.33 172.34 141.67 86.85 168.85 86.72 174.55" />
    <polygon fill="#75777c" points="50.21 27.38 61.55 23.77 72.99 27.69 61.64 31.3 50.21 27.38" />
    <polygon fill="#27537c" points="50.21 27.38 61.55 23.77 72.99 27.69 61.64 31.3 50.21 27.38" />
    <polygon fill="#66a3d8" points="61.1 59.45 72.99 43.42 72.99 27.69 61.64 31.3 61.1 59.45" />
    <polygon fill="#3d80bd" points="61.1 59.45 50.21 55.71 50.21 27.38 61.64 31.3 61.1 59.45" />
    <polygon fill="#1c3c59" points="61.55 23.77 72.99 27.69 61.64 31.3 61.55 23.77" />
</svg>