<?xml version="1.0" encoding="utf-8"?>
<!-- Generator: Adobe Illustrator 24.2.1, SVG Export Plug-In . SVG Version: 6.00 Build 0)  -->
<svg version="1.1" id="Layer_1" xmlns="http://www.w3.org/2000/svg" xmlns:xlink="http://www.w3.org/1999/xlink" x="0px" y="0px"
	 viewBox="0 0 32 32" style="enable-background:new 0 0 32 32;" xml:space="preserve">
<style type="text/css">
	.st0{fill-rule:evenodd;clip-rule:evenodd;fill:#FFD540;}
</style>
<path class="st0" d="M30.7,15.3c-0.7,0-1.3,0.6-1.3,1.3c0,0.7,0.6,1.3,1.3,1.3c0.7,0,1.3-0.6,1.3-1.3c0,0,0,0,0,0
	C32,15.9,31.4,15.3,30.7,15.3z M1.3,15.3c-0.7,0-1.3,0.6-1.3,1.3C0,17.4,0.6,18,1.3,18s1.3-0.6,1.3-1.3C2.7,15.9,2.1,15.3,1.3,15.3
	C1.3,15.3,1.3,15.3,1.3,15.3z M15.8,7.3c-4.9,0.1-8.9,4.1-9.2,9c-0.1,3.7,2,7.2,5.3,8.8v2.2c0,2.2,1.8,4,4,4s4-1.8,4-4v-2.2
	c4.7-2.2,6.6-7.8,4.4-12.4C22.8,9.3,19.5,7.3,15.8,7.3z M26.4,5C25.6,5,25,5.6,25,6.3s0.6,1.3,1.3,1.3s1.3-0.6,1.3-1.3c0,0,0,0,0,0
	C27.7,5.6,27.1,5,26.4,5z M5.6,5C4.9,5,4.3,5.6,4.3,6.4S5,7.7,5.7,7.7S7,7,7,6.3c0,0,0,0,0,0C7,5.6,6.4,5,5.6,5z M16,0.7
	c-0.7,0-1.3,0.6-1.3,1.3s0.6,1.3,1.3,1.3s1.3-0.6,1.3-1.3l0,0C17.3,1.3,16.7,0.7,16,0.7z"/>
</svg>
