<svg id="Layer_1" xmlns="http://www.w3.org/2000/svg" viewBox="0 0 88 22.1"><style>.st0{fill-rule:evenodd;clip-rule:evenodd;fill:#8492a6;enable-background:new}</style><path class="st0" d="M53.6 6.3c-1.4 0-2.5.3-3.6.9 0-3.3 0-6.2.1-7.2l-6.8 1.2v.6l.7.1c.9.2 1.2.7 1.4 1.9.2 2.4.1 15.4 0 17.5 1.8.4 3.7.7 5.7.7 5.4 0 8.6-3.3 8.6-8.6 0-4.1-2.7-7.1-6.1-7.1zm-2.3 14.6c-.4 0-.9 0-1.2-.1-.1-1.4-.2-7.3-.1-12.6.6-.2 1-.3 1.5-.3 2.2 0 3.4 2.6 3.4 5.9 0 4-1.5 7.1-3.6 7.1zm-39.6-19c2.7 0 4.1 1.7 5.2 4.8l1-.3-.1-6H0v.9l1 .1c1.3.2 1.8 1 2 2.9.3 3.7.2 10.3 0 13.4-.2 1.9-.7 2.8-2 2.9l-1 .2v.8h11.4v-.8l-1.2-.2c-1.3-.1-1.8-1-2-2.9-.1-1.3-.2-3.4-.2-6.1l2.4.1c1.5 0 2.2 1.2 2.5 2.9h.9V7.5h-.9c-.3 1.7-1 2.9-2.5 2.9l-2.4.1c0-3.4.1-6.7.2-8.6h3.5z"/><path class="st0" d="M23.6 6.1c-5.1 0-7.9 3.6-7.9 8 0 4.6 2.5 8 7.6 8s7.9-3.6 7.9-8c0-4.6-2.6-8-7.6-8zM23.5 21c-2 0-3-3.1-3-7s.6-7 2.8-7c2.1 0 3.1 3.1 3.1 7 0 4-.6 7-2.9 7zM68.8 6.1c-5.2 0-7.8 3.9-7.8 8.1 0 4.7 3.2 7.9 7.8 7.9 2.8 0 5.1-1.4 6.1-2.8l-.4-.5c-1 .7-1.8 1.1-3.4 1.1-3.6 0-5.5-2.7-5.4-6.5h9.4c0-4.2-2.1-7.3-6.3-7.3zm-3.2 6.1c.1-2.3 1-5.2 2.7-5.2 1.7 0 2 3 2 5.1l-4.7.1zm18.7.3c-2.8-1.1-3.8-1.8-3.8-3.1s.9-2.2 2.1-2.2c1.8 0 3 1.1 3.9 3.8l.7-.2-.1-3.9c-1.2-.5-2.8-.8-4.7-.8-3.7 0-6.1 2.2-6.1 4.9 0 2.6 1.7 3.7 4.1 4.6 2.5.9 3.2 1.6 3.2 2.8 0 1.2-.9 2.3-2.5 2.3-1.9 0-3.3-1.1-4.5-4.1l-.7.2.1 4.5c1.2.5 3.4.9 5.4.9 3.9 0 6.5-2 6.5-5.2.1-2.2-1-3.4-3.6-4.5zM37.9 9.6l.1-3.5-6.8 1.3V8l.8.1c.9.1 1.3.6 1.4 1.9.2 2.4.1 6.7 0 8.8-.1 1.2-.5 1.8-1.4 1.9l-.7.1v.8h9.4v-.8l-1.2-.1c-1-.1-1.3-.7-1.4-1.9-.2-1.9-.2-5.8-.1-8.2.5-.7 2.7-1.3 4.8 0l1.6-4.1c-1.8-1-4.9-.5-6.5 3.1z"/></svg>