<?xml version="1.0" encoding="utf-8"?>
<!-- Generator: Adobe Illustrator 25.0.0, SVG Export Plug-In . SVG Version: 6.00 Build 0)  -->
<svg version="1.1" id="Layer_1" xmlns="http://www.w3.org/2000/svg" xmlns:xlink="http://www.w3.org/1999/xlink" x="0px" y="0px"
	 viewBox="0 0 90 90" style="enable-background:new 0 0 90 90;" xml:space="preserve">
<style type="text/css">
	.st0{fill-rule:evenodd;clip-rule:evenodd;fill:#F8D25A;}
</style>
<g>
	<path class="st0" d="M38.5,76.4c-0.3-0.2-0.5-0.4-0.8-0.5c-0.3-0.2-0.5-0.3-0.8-0.4c-0.3-0.1-0.5-0.2-0.8-0.3
		c-0.2-0.1-0.5-0.2-0.7-0.2c-0.4-0.2-0.8-0.2-1-0.3c-0.1,0-0.2,0-0.3-0.1c-0.1,0-0.1,0-0.1,0s0,0.2,0.1,0.4c0.1,0.3,0.2,0.7,0.4,1.1
		c0.1,0.2,0.2,0.5,0.4,0.7c0.1,0.1,0.1,0.3,0.2,0.4c0.1,0.1,0.2,0.2,0.3,0.4c0.2,0.2,0.4,0.5,0.6,0.7c0.1,0.1,0.2,0.2,0.4,0.4
		c0.1,0.1,0.3,0.2,0.4,0.3c0.3,0.2,0.6,0.4,0.9,0.5c0.3,0.2,0.6,0.3,0.9,0.4c0.6,0.2,1.2,0.4,1.7,0.4c1,0.1,1.7,0.1,1.7,0.1
		S42,80.2,41.8,80c-0.2-0.3-0.4-0.6-0.7-1C40.5,78.2,39.6,77.2,38.5,76.4z"/>
	<path class="st0" d="M41.8,81c0.2-0.2,0.3-0.4,0.3-0.4s-0.7-0.1-1.8,0c-0.5,0-1.1,0.1-1.8,0.2c-0.3,0.1-0.7,0.1-1,0.2
		c-0.3,0.1-0.7,0.2-1.1,0.3c-0.2,0.1-0.4,0.1-0.5,0.2c-0.2,0.1-0.3,0.1-0.5,0.2c-0.3,0.1-0.6,0.3-1,0.5c-0.2,0.1-0.3,0.2-0.4,0.2
		c-0.1,0.1-0.3,0.2-0.4,0.2c-0.3,0.2-0.5,0.3-0.7,0.5c-0.5,0.3-0.8,0.6-1.1,0.8c-0.3,0.2-0.4,0.3-0.4,0.3s0,0,0.1,0
		c0.1,0,0.2,0.1,0.4,0.1c0.3,0.1,0.8,0.2,1.4,0.3c0.3,0,0.6,0.1,0.9,0.1c0.3,0,0.7,0,1.1,0c0.4,0,0.7-0.1,1.1-0.1
		c0.4-0.1,0.8-0.2,1.1-0.3c1.5-0.5,2.6-1.4,3.4-2.2C41.4,81.6,41.6,81.3,41.8,81z"/>
	<path class="st0" d="M32.5,76.4c-0.2-0.3-0.3-0.5-0.5-0.8c-0.2-0.3-0.4-0.5-0.6-0.8c-0.1-0.1-0.2-0.2-0.3-0.4l-0.2-0.2l-0.2-0.2
		c-0.2-0.2-0.5-0.4-0.7-0.6c-0.5-0.3-0.9-0.7-1.3-0.9c-0.2-0.1-0.4-0.2-0.5-0.3c-0.2-0.1-0.3-0.2-0.4-0.2C27.5,72,27.4,72,27.4,72
		s0,0.2,0,0.5c0,0.3,0.1,0.7,0.2,1.2c0.1,0.5,0.3,1,0.5,1.6c0.1,0.1,0.1,0.3,0.2,0.4c0.1,0.1,0.2,0.3,0.2,0.4
		c0.2,0.3,0.4,0.6,0.6,0.8c0.5,0.6,1,1,1.5,1.3c0.1,0.1,0.3,0.2,0.4,0.3c0.1,0.1,0.3,0.1,0.4,0.2c0.3,0.1,0.5,0.2,0.8,0.3
		c0.2,0.1,0.5,0.2,0.7,0.2c0.2,0.1,0.4,0.1,0.5,0.1c0.3,0.1,0.5,0.1,0.5,0.1s-0.1-0.2-0.2-0.5c-0.1-0.3-0.3-0.7-0.5-1.1
		C33.1,77.5,32.8,76.9,32.5,76.4z"/>
	<path class="st0" d="M33.6,80c0.2-0.2,0.3-0.3,0.3-0.3s-0.2-0.1-0.5-0.1c-0.1,0-0.3-0.1-0.5-0.1c-0.2,0-0.4-0.1-0.7-0.1
		c-0.3,0-0.5-0.1-0.8-0.1c-0.2,0-0.3,0-0.5,0c-0.2,0-0.3,0-0.5,0c-0.7,0-1.4,0-2.1,0c-0.4,0-0.7,0.1-1.1,0.2c-0.2,0-0.4,0.1-0.5,0.1
		c-0.2,0-0.3,0.1-0.5,0.1c-0.7,0.2-1.3,0.4-1.8,0.6c-0.5,0.2-0.9,0.4-1.2,0.5c-0.3,0.1-0.4,0.2-0.4,0.2s0.2,0.1,0.5,0.3
		c0.2,0.1,0.3,0.2,0.6,0.3c0.2,0.1,0.5,0.2,0.8,0.3c0.6,0.2,1.2,0.4,1.9,0.5c0.4,0.1,0.7,0.1,1.1,0.1c0.1,0,0.2,0,0.3,0
		c0.1,0,0.2,0,0.3,0c0.2,0,0.4,0,0.6,0c0.4,0,0.8-0.1,1.1-0.2c0.4-0.1,0.7-0.2,1-0.3c0.6-0.3,1.2-0.6,1.6-0.8
		C33,80.5,33.3,80.3,33.6,80z"/>
	<path class="st0" d="M21.6,68.1C21.5,68.1,21.5,68.1,21.6,68.1c-0.1-0.1-0.1,0.1-0.2,0.4c-0.1,0.3-0.1,0.7-0.1,1.2
		c0,0.5,0,1.1,0.1,1.7c0.1,0.6,0.3,1.3,0.7,1.9c0.2,0.3,0.4,0.6,0.6,0.9c0.1,0.1,0.2,0.3,0.3,0.4c0.1,0.1,0.1,0.1,0.2,0.2
		c0.1,0.1,0.1,0.1,0.2,0.2c0.2,0.2,0.5,0.4,0.7,0.6c0.2,0.2,0.4,0.4,0.7,0.5c0.4,0.3,0.8,0.5,1.1,0.6c0.1,0.1,0.2,0.1,0.3,0.1
		c0.1,0,0.1,0,0.1,0s0,0,0-0.1c0-0.1,0-0.2,0-0.4c0-0.3-0.1-0.7-0.2-1.2c-0.1-0.2-0.1-0.5-0.2-0.8c0-0.1-0.1-0.3-0.1-0.4
		c0-0.1-0.1-0.3-0.1-0.4c-0.1-0.3-0.2-0.6-0.3-0.9c-0.1-0.3-0.3-0.6-0.4-0.9c-0.6-1.2-1.4-2.1-2.1-2.7c-0.3-0.3-0.6-0.6-0.8-0.7
		C21.7,68.2,21.6,68.2,21.6,68.1z"/>
	<path class="st0" d="M23.3,78.2c0.2,0,0.3-0.1,0.5-0.1c0.3-0.1,0.6-0.2,0.8-0.3c0.5-0.2,0.9-0.4,1.1-0.5c0.1-0.1,0.2-0.1,0.3-0.2
		c0.1,0,0.1-0.1,0.1-0.1S26,77,25.7,76.8c-0.3-0.1-0.7-0.3-1.2-0.5c-0.2-0.1-0.5-0.2-0.8-0.3c-0.3-0.1-0.6-0.2-0.9-0.3
		c-0.1,0-0.2,0-0.2-0.1c-0.1,0-0.2,0-0.2-0.1c-0.2,0-0.3-0.1-0.5-0.1c-0.3-0.1-0.7-0.1-1.1-0.2c-0.7-0.1-1.5-0.1-2.2-0.1
		c-0.7,0-1.3,0.1-1.8,0.2c-0.5,0.1-1,0.2-1.3,0.2c-0.3,0.1-0.5,0.1-0.5,0.1s0,0,0.1,0.1c0.1,0.1,0.2,0.2,0.3,0.3
		c0.3,0.2,0.7,0.5,1.2,0.8c0.1,0.1,0.3,0.2,0.4,0.2c0.1,0.1,0.3,0.2,0.4,0.2c0.3,0.2,0.6,0.3,1,0.4c0.2,0.1,0.3,0.1,0.5,0.2
		c0.2,0.1,0.4,0.1,0.6,0.2c0.4,0.1,0.8,0.2,1.2,0.2c0.4,0.1,0.8,0.1,1.2,0c0.4,0,0.7,0,1.1-0.1C23,78.3,23.1,78.3,23.3,78.2z"/>
	<path class="st0" d="M19.2,68.2c-0.1-0.3-0.1-0.6-0.2-1c0-0.2-0.1-0.3-0.1-0.5c0-0.2-0.1-0.3-0.2-0.5c-0.1-0.3-0.2-0.6-0.4-0.8
		c0-0.1-0.1-0.1-0.1-0.2c0-0.1-0.1-0.1-0.1-0.2C18,65,18,64.9,17.9,64.8c-0.1-0.2-0.3-0.4-0.4-0.6c-0.1-0.2-0.2-0.4-0.3-0.5
		c-0.1-0.1-0.2-0.3-0.3-0.4c-0.2-0.2-0.3-0.3-0.3-0.3s-0.1,0.2-0.2,0.4c-0.1,0.3-0.2,0.7-0.4,1.1c-0.1,0.2-0.1,0.5-0.2,0.8
		c0,0.3-0.1,0.6-0.1,0.9c0,0.3,0,0.6,0,1c0,0.3,0.1,0.7,0.2,1c0.1,0.3,0.2,0.7,0.3,1c0.1,0.3,0.3,0.6,0.5,0.9
		c0.2,0.3,0.3,0.5,0.5,0.8c0.2,0.2,0.4,0.4,0.6,0.6c0.4,0.4,0.7,0.7,0.9,0.8c0.2,0.2,0.4,0.3,0.4,0.3s0-0.2,0.1-0.5
		c0-0.3,0-0.7,0-1.2c0-0.5,0-1.1-0.1-1.7c0-0.2,0-0.3-0.1-0.5C19.2,68.5,19.2,68.4,19.2,68.2z"/>
	<path class="st0" d="M15.6,73.3c0.7,0,1.3,0,1.8-0.1c0.5-0.1,1-0.2,1.2-0.3c0.3-0.1,0.5-0.2,0.5-0.2s-0.1-0.1-0.4-0.3
		c-0.2-0.2-0.6-0.5-1-0.8c-0.2-0.1-0.4-0.3-0.7-0.5c-0.3-0.2-0.5-0.3-0.8-0.5c-0.3-0.2-0.6-0.3-0.9-0.5c-0.3-0.2-0.7-0.3-1-0.4
		c-0.4-0.1-0.7-0.2-1.1-0.3c-0.3-0.1-0.7-0.2-1-0.2c-0.3-0.1-0.7-0.1-1-0.1c-0.3,0-0.6-0.1-0.9-0.1c-0.5,0-1-0.1-1.3-0.1
		c-0.3,0-0.5,0-0.5,0s0.1,0.2,0.3,0.4c0.1,0.1,0.2,0.3,0.4,0.5c0.2,0.2,0.3,0.4,0.5,0.6c0.2,0.2,0.4,0.4,0.7,0.6
		c0.1,0.1,0.3,0.2,0.4,0.3c0.1,0.1,0.1,0.1,0.2,0.2c0.1,0.1,0.2,0.1,0.2,0.2c0.3,0.2,0.6,0.4,1,0.6c0.2,0.1,0.3,0.2,0.5,0.3
		c0.2,0.1,0.4,0.1,0.6,0.2c0.4,0.1,0.8,0.2,1.1,0.3c0.2,0,0.4,0.1,0.5,0.1C15.3,73.2,15.4,73.3,15.6,73.3z"/>
	<path class="st0" d="M14.1,59.8c-0.1-0.3-0.1-0.5-0.2-0.8c-0.1-0.2-0.1-0.5-0.2-0.7c-0.2-0.4-0.3-0.7-0.4-1C13.1,57.1,13,57,13,57
		s-0.1,0.1-0.3,0.4c-0.1,0.1-0.2,0.3-0.3,0.4c-0.1,0.1-0.1,0.2-0.2,0.3c-0.1,0.1-0.1,0.2-0.2,0.3c-0.2,0.4-0.4,1-0.6,1.6
		c-0.1,0.3-0.1,0.6-0.2,1c0,0.3-0.1,0.7,0,1c0,0.4,0.1,0.7,0.1,1c0.1,0.3,0.2,0.7,0.3,1c0.2,0.6,0.5,1.1,0.7,1.6
		c0.1,0.2,0.3,0.4,0.4,0.6c0.1,0.2,0.2,0.3,0.3,0.4c0.2,0.2,0.3,0.4,0.3,0.4s0.1-0.2,0.2-0.5c0.1-0.3,0.2-0.7,0.3-1.2
		c0.1-0.2,0.1-0.5,0.2-0.8c0.1-0.3,0.1-0.6,0.1-0.9c0-0.3,0.1-0.6,0.1-0.9c0-0.2,0-0.3,0-0.5c0-0.2,0-0.3,0-0.5c0-0.3-0.1-0.7-0.1-1
		C14.2,60.4,14.1,60.1,14.1,59.8z"/>
	<path class="st0" d="M9.7,66.8c0.3,0.1,0.6,0.2,0.9,0.2c0.3,0.1,0.6,0.1,0.9,0.1c0.5,0,1,0,1.3,0c0.3,0,0.5-0.1,0.5-0.1
		s-0.1-0.1-0.3-0.4c-0.1-0.1-0.2-0.3-0.3-0.4c-0.1-0.2-0.3-0.3-0.5-0.5c-0.3-0.4-0.8-0.8-1.3-1.3c-0.2-0.2-0.5-0.4-0.8-0.7
		c-0.3-0.2-0.6-0.4-0.9-0.6c-0.3-0.2-0.6-0.4-1-0.5c-0.3-0.2-0.7-0.3-1-0.4c-0.6-0.3-1.2-0.5-1.7-0.6c-0.1,0-0.3-0.1-0.4-0.1
		c-0.1,0-0.2-0.1-0.3-0.1c-0.2-0.1-0.4-0.1-0.6-0.1c-0.3-0.1-0.5-0.1-0.5-0.1s0.1,0.2,0.2,0.5c0.1,0.3,0.4,0.7,0.7,1.2
		c0.2,0.2,0.3,0.5,0.5,0.8c0.2,0.3,0.4,0.5,0.7,0.8c0.3,0.3,0.5,0.5,0.8,0.8c0.3,0.2,0.6,0.5,1,0.7C7.9,66,8,66.1,8.2,66.2
		c0.1,0,0.2,0.1,0.3,0.1c0.1,0,0.2,0.1,0.3,0.1C9.1,66.6,9.4,66.7,9.7,66.8z"/>
	<path class="st0" d="M8.3,58.5c0.2,0.5,0.3,0.9,0.5,1.2C8.9,59.9,9,60.1,9,60.1s0.1-0.1,0.2-0.4c0.1-0.3,0.4-0.6,0.6-1.1
		c0.2-0.5,0.5-1,0.7-1.6c0.2-0.6,0.4-1.2,0.5-1.9c0.1-0.7,0.2-1.3,0.2-1.9c0-0.6,0-1.1-0.1-1.5c-0.1-0.9-0.3-1.5-0.3-1.5
		s-0.1,0.1-0.3,0.3c-0.2,0.2-0.5,0.5-0.8,0.9c-0.3,0.4-0.7,0.9-0.9,1.4c-0.1,0.3-0.3,0.6-0.4,0.9c-0.1,0.2-0.1,0.3-0.2,0.5
		c0,0.2-0.1,0.3-0.1,0.5c-0.1,0.3-0.1,0.7-0.1,1c0,0.2,0,0.3,0,0.5c0,0.2,0,0.3,0,0.5C8,57.4,8.1,58,8.3,58.5z"/>
	<path class="st0" d="M7.1,59.9C7.6,60,8,60.1,8.3,60.1c0.3,0,0.5,0.1,0.5,0.1S8.8,60,8.6,59.8c-0.1-0.3-0.3-0.7-0.6-1.1
		c-0.3-0.4-0.6-1-1-1.5C7,57,6.9,56.9,6.8,56.7c-0.1-0.1-0.2-0.3-0.3-0.4c-0.2-0.3-0.5-0.5-0.7-0.8c-0.1-0.1-0.3-0.3-0.4-0.4
		C5.2,55,5,54.9,4.9,54.8c-0.3-0.2-0.6-0.4-0.8-0.6c-0.6-0.4-1.1-0.7-1.6-1c-0.5-0.3-0.9-0.5-1.2-0.6c-0.3-0.1-0.5-0.2-0.5-0.2
		s0.1,0.8,0.5,1.9c0.2,0.5,0.5,1.2,0.8,1.8c0.4,0.6,0.8,1.3,1.4,1.8c0.6,0.6,1.2,1,1.8,1.3C6,59.5,6.6,59.7,7.1,59.9z"/>
	<path class="st0" d="M5.9,51.2c0,0.1,0,0.2,0.1,0.3c0,0.2,0.1,0.4,0.1,0.5c0.1,0.3,0.1,0.5,0.1,0.5s0.1-0.1,0.3-0.3
		c0.2-0.2,0.5-0.5,0.8-0.9c0.3-0.4,0.7-0.9,1-1.4c0.2-0.3,0.3-0.5,0.5-0.8c0.2-0.3,0.3-0.6,0.4-0.9c0.1-0.3,0.2-0.6,0.3-0.9
		c0.1-0.3,0.2-0.6,0.2-0.9C9.9,46,10,45.8,10,45.5c0-0.3,0.1-0.5,0.1-0.7c0-0.4,0-0.8,0-1.1c0-0.3,0-0.4,0-0.4s-0.2,0.1-0.4,0.2
		c-0.1,0.1-0.3,0.2-0.5,0.3c-0.2,0.1-0.4,0.2-0.5,0.4c-0.4,0.3-0.8,0.7-1.2,1.2c-0.2,0.2-0.4,0.5-0.6,0.8c-0.2,0.3-0.3,0.6-0.5,0.9
		c-0.1,0.2-0.1,0.3-0.2,0.5c-0.1,0.2-0.1,0.3-0.1,0.5c-0.1,0.3-0.1,0.7-0.2,1c0,0.3-0.1,0.6-0.1,0.9c0,0.3,0,0.6,0,0.8
		C5.9,50.9,5.9,51,5.9,51.2z"/>
	<path class="st0" d="M2.1,50c0.3,0.3,0.5,0.5,0.8,0.8c0.5,0.4,1,0.8,1.5,1.1c0.5,0.3,0.9,0.4,1.2,0.5C5.8,52.5,6,52.5,6,52.5
		s0-0.2-0.1-0.5c0-0.1-0.1-0.3-0.1-0.5c0-0.1-0.1-0.2-0.1-0.3c0-0.1-0.1-0.2-0.1-0.4c-0.1-0.2-0.2-0.5-0.3-0.8
		c-0.1-0.3-0.2-0.6-0.3-0.9c-0.1-0.3-0.3-0.6-0.4-0.9c-0.1-0.2-0.2-0.3-0.3-0.5c-0.1-0.2-0.2-0.3-0.3-0.5c-0.2-0.3-0.4-0.6-0.6-0.9
		c-0.2-0.3-0.5-0.6-0.7-0.8c-0.4-0.5-0.9-0.9-1.3-1.3c-0.2-0.2-0.4-0.3-0.6-0.5c-0.2-0.1-0.3-0.3-0.4-0.4C0.2,43.2,0,43.1,0,43.1
		s0,0.2,0,0.5c0,0.3,0,0.8,0.1,1.4c0,0.3,0.1,0.6,0.1,0.9c0.1,0.3,0.2,0.7,0.3,1c0.1,0.3,0.2,0.7,0.4,1c0.2,0.3,0.4,0.7,0.6,1
		C1.7,49.4,1.9,49.7,2.1,50z"/>
	<path class="st0" d="M6.6,43.4c0.4-0.3,0.9-0.7,1.3-1.1c0.2-0.2,0.4-0.5,0.7-0.7c0.2-0.2,0.4-0.5,0.6-0.8c0.1-0.1,0.2-0.3,0.3-0.4
		c0.1-0.1,0.2-0.3,0.3-0.4c0.2-0.3,0.3-0.5,0.4-0.8c0.1-0.3,0.2-0.5,0.3-0.8c0.1-0.2,0.2-0.5,0.2-0.7c0-0.1,0.1-0.2,0.1-0.3
		c0-0.1,0.1-0.2,0.1-0.3c0-0.2,0.1-0.3,0.1-0.5c0.1-0.3,0.1-0.4,0.1-0.4s-0.2,0-0.4,0.1c-0.3,0.1-0.7,0.2-1.1,0.4
		C9,37.1,8.5,37.4,8,37.8c-0.2,0.2-0.5,0.4-0.7,0.6c-0.2,0.2-0.5,0.5-0.7,0.8c-0.2,0.3-0.4,0.6-0.6,0.9c-0.2,0.3-0.3,0.6-0.4,0.9
		c-0.1,0.3-0.2,0.6-0.3,0.9c-0.1,0.3-0.1,0.6-0.1,0.8c-0.1,0.5-0.1,0.9-0.1,1.2c0,0.3,0,0.5,0,0.5s0.2-0.1,0.4-0.3
		C5.7,44.1,5.9,44,6,43.9C6.2,43.8,6.4,43.6,6.6,43.4z"/>
	<path class="st0" d="M1,39c0,0.2,0.1,0.4,0.1,0.6c0,0.2,0.1,0.4,0.2,0.6c0.1,0.4,0.3,0.7,0.5,1c0.2,0.3,0.4,0.6,0.6,0.9
		c0.4,0.5,0.8,1,1.2,1.4c0.2,0.2,0.4,0.3,0.5,0.5c0.2,0.1,0.3,0.2,0.5,0.3C4.8,44.4,5,44.5,5,44.5s0-0.2,0-0.5c0-0.3,0-0.7,0-1.3
		c0-0.3-0.1-0.5-0.1-0.8c0-0.3-0.1-0.6-0.1-0.9c-0.1-0.3-0.1-0.7-0.2-1c-0.1-0.3-0.2-0.7-0.3-1c-0.1-0.4-0.3-0.7-0.4-1
		c-0.1-0.3-0.3-0.6-0.5-0.9c-0.3-0.6-0.7-1.1-1-1.6c-0.3-0.4-0.6-0.8-0.8-1C1.3,34.1,1.2,34,1.2,34s-0.1,0.2-0.1,0.5
		c0,0.2-0.1,0.4-0.1,0.6c0,0.1,0,0.2-0.1,0.4c0,0.1,0,0.3,0,0.4c0,0.3,0,0.6-0.1,0.9c0,0.3,0,0.7,0,1C0.8,38.3,0.9,38.6,1,39z"/>
	<path class="st0" d="M6.4,36.2c0.3-0.1,0.7-0.3,1.1-0.5c0.5-0.2,1-0.5,1.5-0.8c0.3-0.2,0.5-0.3,0.8-0.5c0.1-0.1,0.3-0.2,0.4-0.3
		c0.1-0.1,0.3-0.2,0.4-0.3c0.3-0.2,0.5-0.4,0.7-0.7c0.1-0.1,0.2-0.2,0.3-0.3c0.1-0.1,0.2-0.2,0.3-0.3c0.4-0.4,0.6-0.9,0.9-1.3
		c0.2-0.4,0.4-0.7,0.5-1c0.1-0.2,0.2-0.4,0.2-0.4s-0.2,0-0.5,0c-0.3,0-0.7,0.1-1.2,0.2c-0.5,0.1-1,0.3-1.6,0.5
		c-0.6,0.3-1.1,0.6-1.7,1.1c-0.5,0.5-1,1-1.3,1.6c-0.3,0.5-0.6,1.1-0.8,1.6c-0.3,1-0.4,1.7-0.4,1.7S6.1,36.3,6.4,36.2z"/>
	<path class="st0" d="M3.2,31.9c0,0.2,0.1,0.4,0.1,0.6c0.1,0.4,0.2,0.7,0.4,1c0.3,0.6,0.6,1.2,0.9,1.6c0.3,0.4,0.6,0.8,0.8,1
		c0.2,0.2,0.3,0.3,0.3,0.3s0.2-0.7,0.4-1.7c0.1-0.5,0.2-1.1,0.2-1.8c0-0.7,0-1.4-0.1-2.1C6.1,30,6,29.3,5.8,28.7
		c-0.2-0.6-0.4-1.2-0.6-1.7C5,26.4,4.8,26,4.6,25.7c-0.1-0.3-0.2-0.4-0.2-0.4s-0.1,0.2-0.3,0.5c-0.1,0.3-0.3,0.8-0.5,1.3
		c-0.2,0.5-0.4,1.2-0.5,1.9c0,0.2,0,0.4-0.1,0.5c0,0.2,0,0.4,0,0.6c0,0.4,0,0.8,0.1,1.2C3.1,31.5,3.2,31.7,3.2,31.9z"/>
	<path class="st0" d="M9.3,27.2C9,27.6,8.8,28,8.7,28.2c-0.1,0.3-0.2,0.4-0.2,0.4s0.2,0,0.5-0.1c0.2,0,0.3-0.1,0.5-0.1
		c0.2,0,0.4-0.1,0.7-0.1c0.5-0.1,1.1-0.3,1.7-0.5c0.3-0.1,0.6-0.2,0.9-0.3c0.3-0.1,0.6-0.3,0.9-0.4c0.3-0.2,0.6-0.3,0.8-0.5
		c0.3-0.2,0.5-0.4,0.7-0.5c0.4-0.4,0.8-0.7,1.1-1.1c0.1-0.2,0.3-0.3,0.4-0.5c0.1-0.1,0.2-0.3,0.3-0.4c0.2-0.2,0.2-0.3,0.2-0.3
		s-0.2,0-0.5-0.1c-0.3,0-0.7-0.1-1.2-0.1c-0.3,0-0.5,0-0.8,0c-0.3,0-0.6,0.1-0.9,0.1c-0.3,0.1-0.6,0.2-0.9,0.3
		c-0.1,0-0.2,0.1-0.2,0.1c-0.1,0-0.2,0.1-0.2,0.1c-0.2,0.1-0.3,0.2-0.5,0.2c-0.3,0.2-0.6,0.4-0.9,0.6c-0.3,0.2-0.5,0.4-0.7,0.7
		c-0.2,0.2-0.4,0.5-0.6,0.7C9.6,26.7,9.4,26.9,9.3,27.2z"/>
	<path class="st0" d="M7.5,27.1c0,0.1,0.1,0.2,0.1,0.3c0.1,0.1,0.1,0.2,0.2,0.3c0.1,0.2,0.2,0.4,0.3,0.5c0.2,0.3,0.3,0.4,0.3,0.4
		s0.1-0.2,0.2-0.4C8.6,27.9,8.8,27.5,9,27c0.1-0.2,0.2-0.5,0.3-0.8c0.1-0.3,0.2-0.6,0.3-0.9c0.1-0.3,0.2-0.7,0.2-1
		C9.9,24,10,23.6,10,23.3c0-0.2,0-0.4,0-0.6c0-0.2,0-0.4,0-0.5c0-0.4,0-0.7,0-1c0-0.3,0-0.7-0.1-1c0-0.3-0.1-0.6-0.1-0.9
		c-0.1-0.5-0.2-1-0.3-1.3c-0.1-0.3-0.1-0.5-0.1-0.5S9.3,17.7,9.1,18c-0.1,0.1-0.2,0.3-0.4,0.5c-0.1,0.2-0.3,0.4-0.4,0.7
		c-0.3,0.5-0.6,1.1-0.9,1.8c-0.1,0.3-0.2,0.7-0.3,1.1c-0.1,0.4-0.2,0.8-0.2,1.2c0,0.4,0,0.8,0,1.1c0,0.4,0.1,0.7,0.1,1.1
		C7.1,26,7.3,26.6,7.5,27.1z"/>
	<path class="st0" d="M15.2,19.3c-0.1,0-0.1,0.1-0.2,0.1c-0.1,0-0.1,0.1-0.2,0.1c-0.1,0.1-0.2,0.2-0.4,0.3c-0.2,0.2-0.4,0.4-0.6,0.5
		c-0.2,0.2-0.3,0.4-0.5,0.5c-0.1,0.2-0.3,0.3-0.3,0.4c-0.2,0.2-0.3,0.4-0.3,0.4s0.2,0,0.5,0c0.3,0,0.7,0,1.2,0c0.3,0,0.5,0,0.8,0
		c0.3,0,0.6,0,0.9-0.1c0.3,0,0.6-0.1,0.9-0.1c0.3-0.1,0.7-0.1,1-0.2c0.3-0.1,0.6-0.2,0.9-0.3c0.3-0.1,0.6-0.2,0.8-0.4
		c0.3-0.1,0.5-0.3,0.7-0.4c0.2-0.1,0.4-0.3,0.6-0.4c0.4-0.3,0.7-0.5,0.9-0.7c0.2-0.2,0.3-0.3,0.3-0.3s-0.2-0.1-0.4-0.2
		c-0.3-0.1-0.7-0.2-1.2-0.3c-0.5-0.1-1.1-0.2-1.7-0.2c-0.2,0-0.3,0-0.5,0c-0.2,0-0.3,0-0.5,0.1c-0.3,0-0.7,0.1-1,0.2
		c-0.2,0-0.3,0.1-0.5,0.2c-0.2,0.1-0.3,0.1-0.5,0.2C15.7,19,15.4,19.1,15.2,19.3z"/>
	<path class="st0" d="M12,19.9c0.1,0.5,0.2,0.9,0.3,1.2c0.1,0.3,0.2,0.5,0.2,0.5s0.1-0.1,0.3-0.4c0.1-0.1,0.2-0.3,0.3-0.4
		c0.1-0.2,0.3-0.4,0.4-0.6c0.2-0.2,0.3-0.4,0.5-0.7c0.1-0.1,0.2-0.3,0.2-0.4c0-0.1,0.1-0.1,0.1-0.2c0-0.1,0.1-0.1,0.1-0.2
		c0.2-0.3,0.3-0.6,0.5-0.9c0.1-0.2,0.1-0.3,0.2-0.5c0.1-0.2,0.1-0.3,0.2-0.5c0.1-0.4,0.2-0.7,0.3-1.1c0-0.2,0.1-0.3,0.1-0.5
		c0-0.2,0.1-0.3,0.1-0.5c0.1-0.7,0.2-1.3,0.2-1.8c0-0.5,0-1,0-1.3c0-0.3,0-0.5,0-0.5s-0.2,0.1-0.4,0.3c-0.3,0.2-0.6,0.5-1.1,1
		c-0.2,0.2-0.4,0.4-0.6,0.7c-0.2,0.3-0.4,0.5-0.6,0.8c-0.2,0.3-0.4,0.6-0.6,1c-0.2,0.3-0.3,0.7-0.4,1.1c-0.1,0.4-0.2,0.7-0.3,1.1
		c-0.1,0.4-0.1,0.7-0.1,1.1c0,0.3,0,0.7,0,1C12,19.4,12,19.7,12,19.9z"/>
	<path class="st0" d="M24.6,16.5c0.2,0,0.3-0.1,0.5-0.1c0.1,0,0.1,0,0.2-0.1c0.1,0,0.1,0,0.2,0c0.3-0.1,0.5-0.1,0.8-0.2
		c0.2-0.1,0.5-0.2,0.7-0.3c0.4-0.2,0.8-0.3,1-0.4c0.2-0.1,0.4-0.2,0.4-0.2s0,0-0.1-0.1c-0.1,0-0.2-0.1-0.3-0.2
		c-0.2-0.2-0.6-0.4-1.1-0.6c-0.2-0.1-0.5-0.2-0.7-0.3c-0.1,0-0.3-0.1-0.4-0.1c-0.1,0-0.3-0.1-0.4-0.1c-0.3-0.1-0.6-0.1-1-0.2
		c-0.3,0-0.7-0.1-1,0c-1.4,0.1-2.7,0.6-3.6,1.2c-0.4,0.3-0.8,0.5-1,0.7c-0.1,0.1-0.2,0.2-0.3,0.2c-0.1,0.1-0.1,0.1-0.1,0.1
		s0.2,0.1,0.5,0.1c0.3,0.1,0.7,0.2,1.2,0.3c0.5,0.1,1.1,0.2,1.7,0.3c0.6,0.1,1.3,0.1,2,0C24,16.6,24.3,16.6,24.6,16.5z"/>
	<path class="st0" d="M18.2,15.7c0,0,0,0,0.1-0.1c0.1,0,0.2-0.1,0.3-0.2c0.2-0.2,0.6-0.5,1-0.8c0.8-0.7,1.7-1.7,2.5-3
		c0.2-0.3,0.4-0.6,0.5-1c0.2-0.3,0.3-0.6,0.4-1c0.1-0.2,0.1-0.3,0.2-0.5c0.1-0.1,0.1-0.3,0.2-0.4c0.1-0.3,0.2-0.6,0.3-0.8
		c0.2-0.5,0.3-1,0.3-1.3C24,6.5,24,6.4,24,6.3c0-0.1,0-0.1,0-0.1s0,0-0.1,0.1c-0.1,0-0.2,0.1-0.4,0.2c-0.3,0.2-0.8,0.4-1.2,0.7
		c-0.3,0.2-0.5,0.3-0.8,0.6c-0.3,0.2-0.5,0.4-0.8,0.7c-0.1,0.1-0.1,0.1-0.2,0.2c-0.1,0.1-0.1,0.1-0.2,0.2C20.2,8.9,20,9,19.9,9.2
		c-0.2,0.3-0.5,0.6-0.7,0.9c-0.4,0.7-0.7,1.4-0.9,2c-0.2,0.7-0.3,1.3-0.3,1.8c0,0.5,0,0.9,0,1.3C18.1,15.5,18.2,15.7,18.2,15.7z"/>
	<path class="st0" d="M25.1,11.6c0.2,0,0.4-0.1,0.7-0.1c0.5-0.1,1.1-0.3,1.7-0.5c0.3-0.1,0.6-0.2,1-0.4c0.1,0,0.2-0.1,0.2-0.1
		c0.1,0,0.2-0.1,0.2-0.1c0.2-0.1,0.3-0.2,0.5-0.3c0.3-0.2,0.6-0.4,0.9-0.6c0.3-0.2,0.6-0.4,0.8-0.6c0.5-0.4,1-0.8,1.4-1.2
		c0.4-0.4,0.7-0.7,0.9-0.9c0.2-0.2,0.3-0.4,0.3-0.4s-0.2,0-0.5-0.1c-0.2,0-0.4,0-0.6,0c-0.2,0-0.5,0-0.8,0c-0.3,0-0.6,0.1-0.9,0.1
		c-0.2,0-0.3,0-0.5,0.1c-0.2,0-0.3,0.1-0.5,0.1c-0.7,0.2-1.4,0.4-2.1,0.9c-0.3,0.2-0.7,0.4-1,0.6c-0.1,0.1-0.3,0.2-0.4,0.3
		c-0.1,0.1-0.3,0.2-0.4,0.4c-0.5,0.5-0.9,1-1.1,1.4c-0.3,0.5-0.5,0.8-0.6,1.1c-0.1,0.3-0.2,0.4-0.2,0.4s0.2,0,0.5-0.1
		C24.7,11.6,24.8,11.6,25.1,11.6z"/>
	<path class="st0" d="M54.5,74.9c-0.2,0.1-0.4,0.1-0.7,0.2c-0.2,0.1-0.5,0.2-0.8,0.3c-0.3,0.1-0.5,0.3-0.8,0.4
		c-0.3,0.2-0.5,0.3-0.8,0.5c-1.1,0.8-2,1.8-2.6,2.6c-0.3,0.4-0.6,0.8-0.7,1c-0.2,0.3-0.3,0.4-0.3,0.4s0.7,0.1,1.7-0.1
		c0.5-0.1,1.1-0.2,1.7-0.4c0.3-0.1,0.6-0.2,0.9-0.4c0.3-0.2,0.6-0.3,0.9-0.5c0.1-0.1,0.3-0.2,0.4-0.3c0.1-0.1,0.3-0.2,0.4-0.4
		c0.2-0.2,0.4-0.5,0.6-0.7c0.1-0.1,0.2-0.2,0.3-0.4c0.1-0.1,0.2-0.3,0.2-0.4c0.1-0.2,0.3-0.5,0.4-0.7c0.2-0.4,0.3-0.8,0.4-1.1
		c0.1-0.3,0.1-0.4,0.1-0.4s0,0-0.1,0c-0.1,0-0.2,0-0.3,0.1C55.3,74.6,55,74.7,54.5,74.9z"/>
	<path class="st0" d="M57.1,83.1c-0.2-0.1-0.5-0.3-0.7-0.5c-0.1-0.1-0.3-0.2-0.4-0.2c-0.1-0.1-0.3-0.2-0.4-0.2
		c-0.3-0.2-0.6-0.3-1-0.5c-0.2-0.1-0.3-0.1-0.5-0.2c-0.2-0.1-0.3-0.1-0.5-0.2c-0.4-0.1-0.7-0.2-1.1-0.3c-0.3-0.1-0.7-0.1-1-0.2
		c-0.7-0.1-1.3-0.2-1.8-0.2c-1-0.1-1.8,0-1.8,0s0.1,0.2,0.3,0.4c0.2,0.2,0.4,0.6,0.8,1c0.7,0.8,1.8,1.7,3.4,2.2
		c0.4,0.1,0.8,0.2,1.1,0.3c0.4,0.1,0.8,0.1,1.1,0.1c0.4,0,0.7,0,1.1,0c0.3,0,0.7,0,0.9-0.1c0.6-0.1,1.1-0.2,1.4-0.3
		c0.2,0,0.3-0.1,0.4-0.1c0.1,0,0.1,0,0.1,0s-0.1-0.1-0.4-0.3C57.9,83.6,57.5,83.4,57.1,83.1z"/>
	<path class="st0" d="M61.8,72.4c-0.2,0.1-0.3,0.2-0.5,0.3c-0.4,0.2-0.8,0.5-1.3,0.9c-0.2,0.2-0.5,0.4-0.7,0.6l-0.2,0.2L59,74.5
		c-0.1,0.1-0.2,0.2-0.3,0.4c-0.2,0.3-0.4,0.5-0.6,0.8c-0.2,0.3-0.4,0.5-0.5,0.8c-0.3,0.5-0.6,1.1-0.8,1.5c-0.2,0.5-0.4,0.8-0.5,1.1
		c-0.1,0.3-0.2,0.5-0.2,0.5s0.2,0,0.5-0.1c0.2,0,0.3-0.1,0.5-0.1c0.2-0.1,0.4-0.1,0.7-0.2c0.2-0.1,0.5-0.2,0.8-0.3
		c0.1-0.1,0.3-0.1,0.4-0.2c0.1-0.1,0.3-0.2,0.4-0.3c0.5-0.4,1.1-0.8,1.5-1.3c0.2-0.3,0.4-0.6,0.6-0.8c0.1-0.1,0.2-0.3,0.2-0.4
		c0.1-0.1,0.1-0.3,0.2-0.4c0.3-0.6,0.4-1.1,0.5-1.6c0.1-0.5,0.1-0.9,0.2-1.2c0-0.3,0-0.5,0-0.5s-0.1,0.1-0.4,0.2
		C62.1,72.2,62,72.3,61.8,72.4z"/>
	<path class="st0" d="M65.6,80.1c-0.5-0.2-1.1-0.4-1.8-0.6c-0.2,0-0.3-0.1-0.5-0.1c-0.2,0-0.3-0.1-0.5-0.1c-0.4-0.1-0.7-0.1-1.1-0.2
		c-0.7-0.1-1.5-0.1-2.1,0c-0.2,0-0.3,0-0.5,0c-0.2,0-0.3,0-0.5,0c-0.3,0-0.6,0.1-0.8,0.1c-0.3,0-0.5,0.1-0.7,0.1
		c-0.2,0-0.4,0.1-0.5,0.1c-0.3,0.1-0.5,0.1-0.5,0.1s0.1,0.1,0.3,0.3c0.2,0.2,0.6,0.5,1,0.8c0.4,0.3,1,0.6,1.6,0.8
		c0.3,0.1,0.7,0.3,1,0.3c0.4,0.1,0.7,0.2,1.1,0.2c0.2,0,0.4,0,0.6,0c0.1,0,0.2,0,0.3,0c0.1,0,0.2,0,0.3,0c0.4,0,0.8-0.1,1.1-0.1
		c0.7-0.1,1.4-0.3,1.9-0.5c0.3-0.1,0.5-0.2,0.8-0.3c0.2-0.1,0.4-0.2,0.6-0.3c0.3-0.2,0.5-0.3,0.5-0.3s-0.2-0.1-0.4-0.2
		C66.5,80.5,66.1,80.3,65.6,80.1z"/>
	<path class="st0" d="M64.2,76.7c0.3-0.1,0.7-0.3,1.1-0.6c0.2-0.1,0.4-0.3,0.7-0.5c0.2-0.2,0.5-0.4,0.7-0.6c0.1-0.1,0.1-0.1,0.2-0.2
		c0.1-0.1,0.1-0.1,0.2-0.2c0.1-0.1,0.2-0.3,0.3-0.4c0.2-0.3,0.4-0.6,0.6-0.9c0.3-0.6,0.5-1.3,0.7-1.9c0.1-0.6,0.2-1.2,0.1-1.7
		c0-0.5,0-0.9-0.1-1.2c0-0.3-0.1-0.5-0.1-0.5s0,0-0.1,0.1c-0.1,0-0.1,0.1-0.2,0.2c-0.2,0.2-0.5,0.4-0.8,0.7
		c-0.6,0.6-1.5,1.5-2.1,2.7c-0.2,0.3-0.3,0.6-0.4,0.9c-0.1,0.3-0.2,0.6-0.3,0.9c0,0.1-0.1,0.3-0.1,0.4c0,0.1-0.1,0.3-0.1,0.4
		c-0.1,0.3-0.1,0.5-0.2,0.8c-0.1,0.5-0.2,0.9-0.2,1.2c0,0.2,0,0.3,0,0.4c0,0.1,0,0.1,0,0.1s0,0,0.1,0C64,76.8,64.1,76.7,64.2,76.7z"
		/>
	<path class="st0" d="M73.2,75.3c-0.5-0.1-1.2-0.1-1.8-0.2c-0.7,0-1.4,0-2.2,0.1c-0.4,0-0.7,0.1-1.1,0.2c-0.2,0-0.3,0.1-0.5,0.1
		c-0.1,0-0.2,0-0.2,0.1c-0.1,0-0.2,0-0.2,0.1c-0.3,0.1-0.6,0.2-0.9,0.3c-0.3,0.1-0.5,0.2-0.8,0.3c-0.5,0.2-0.9,0.4-1.2,0.5
		c-0.3,0.1-0.4,0.2-0.4,0.2s0,0,0.1,0.1c0.1,0,0.2,0.1,0.3,0.2c0.3,0.1,0.7,0.3,1.1,0.5c0.2,0.1,0.5,0.2,0.8,0.3
		c0.1,0,0.3,0.1,0.5,0.1c0.2,0,0.3,0.1,0.5,0.1c0.3,0.1,0.7,0.1,1.1,0.1c0.4,0,0.8,0,1.2,0c0.4,0,0.8-0.1,1.2-0.2
		c0.2,0,0.4-0.1,0.6-0.2c0.2-0.1,0.4-0.1,0.5-0.2c0.3-0.1,0.7-0.3,1-0.4c0.1-0.1,0.3-0.2,0.4-0.2c0.1-0.1,0.3-0.2,0.4-0.2
		c0.5-0.3,0.9-0.6,1.2-0.8c0.1-0.1,0.2-0.2,0.3-0.3c0.1-0.1,0.1-0.1,0.1-0.1s-0.2-0.1-0.5-0.1C74.2,75.5,73.8,75.4,73.2,75.3z"/>
	<path class="st0" d="M73.6,63.4c-0.1-0.3-0.2-0.4-0.2-0.4s-0.1,0.1-0.3,0.3c-0.1,0.1-0.2,0.2-0.3,0.4c-0.1,0.1-0.2,0.3-0.3,0.5
		c-0.1,0.2-0.3,0.4-0.4,0.6C72,64.9,72,65,71.9,65.1c0,0.1-0.1,0.1-0.1,0.2c0,0.1-0.1,0.1-0.1,0.2c-0.1,0.3-0.3,0.5-0.4,0.8
		c-0.1,0.1-0.1,0.3-0.2,0.5c0,0.2-0.1,0.3-0.1,0.5c-0.1,0.3-0.2,0.6-0.2,1c0,0.2-0.1,0.3-0.1,0.5c0,0.2,0,0.3-0.1,0.5
		c-0.1,0.6-0.1,1.2-0.1,1.7c0,0.5,0,0.9,0,1.2c0,0.3,0.1,0.5,0.1,0.5s0.1-0.1,0.4-0.3c0.2-0.2,0.6-0.5,0.9-0.8
		c0.2-0.2,0.4-0.4,0.6-0.6c0.2-0.2,0.4-0.5,0.5-0.8c0.2-0.3,0.3-0.6,0.5-0.9c0.1-0.3,0.3-0.6,0.3-1c0.1-0.3,0.2-0.7,0.2-1
		c0-0.3,0-0.7,0-1c0-0.3,0-0.6-0.1-0.9s-0.1-0.5-0.2-0.8C73.8,64.1,73.7,63.7,73.6,63.4z"/>
	<path class="st0" d="M79.6,69.1c-0.3,0-0.6,0.1-0.9,0.1c-0.3,0-0.6,0.1-1,0.1c-0.3,0.1-0.7,0.1-1,0.2c-0.3,0.1-0.7,0.2-1.1,0.3
		c-0.4,0.1-0.7,0.3-1,0.4c-0.3,0.1-0.6,0.3-0.9,0.5c-0.3,0.2-0.6,0.3-0.8,0.5c-0.3,0.2-0.5,0.3-0.7,0.5c-0.4,0.3-0.8,0.6-1,0.8
		c-0.2,0.2-0.4,0.3-0.4,0.3s0.2,0.1,0.5,0.2c0.3,0.1,0.7,0.2,1.2,0.3c0.5,0.1,1.1,0.1,1.8,0.1c0.2,0,0.3,0,0.5,0
		c0.2,0,0.4-0.1,0.5-0.1c0.4-0.1,0.7-0.2,1.1-0.3c0.2-0.1,0.4-0.1,0.6-0.2c0.2-0.1,0.4-0.2,0.5-0.3c0.3-0.2,0.7-0.4,1-0.6
		c0.1-0.1,0.2-0.1,0.2-0.2c0.1-0.1,0.1-0.1,0.2-0.2c0.1-0.1,0.3-0.2,0.4-0.3c0.3-0.2,0.5-0.4,0.7-0.6c0.2-0.2,0.4-0.4,0.5-0.6
		c0.2-0.2,0.3-0.3,0.4-0.5c0.2-0.3,0.3-0.4,0.3-0.4s-0.2,0-0.5,0C80.6,69,80.1,69,79.6,69.1z"/>
	<path class="st0" d="M77.9,58.4c-0.1-0.1-0.1-0.2-0.2-0.3c-0.1-0.1-0.1-0.2-0.2-0.3c-0.1-0.2-0.2-0.3-0.3-0.4
		C77.1,57.1,77,57,77,57s-0.1,0.1-0.2,0.4c-0.1,0.2-0.3,0.6-0.4,1c-0.1,0.2-0.2,0.4-0.2,0.7c-0.1,0.2-0.2,0.5-0.2,0.8
		c-0.1,0.3-0.1,0.6-0.2,0.9c-0.1,0.3-0.1,0.6-0.1,1c0,0.2,0,0.3,0,0.5c0,0.2,0,0.3,0,0.5c0,0.3,0,0.6,0.1,0.9c0,0.3,0.1,0.6,0.1,0.9
		c0.1,0.3,0.1,0.5,0.2,0.8c0.1,0.5,0.2,0.9,0.3,1.2c0.1,0.3,0.2,0.5,0.2,0.5s0.1-0.1,0.3-0.4c0.1-0.1,0.2-0.3,0.3-0.4
		c0.1-0.2,0.3-0.4,0.4-0.6c0.3-0.4,0.5-1,0.7-1.6c0.1-0.3,0.2-0.6,0.3-1c0.1-0.3,0.1-0.7,0.1-1c0-0.4,0-0.7,0-1c0-0.3-0.1-0.6-0.2-1
		C78.3,59.3,78.1,58.8,77.9,58.4z"/>
	<path class="st0" d="M85.2,61.3c-0.1,0-0.2,0.1-0.3,0.1c-0.1,0-0.2,0.1-0.4,0.1c-0.5,0.2-1.1,0.4-1.7,0.6c-0.3,0.1-0.6,0.3-1,0.4
		c-0.3,0.2-0.6,0.3-1,0.5c-0.3,0.2-0.6,0.4-0.9,0.6c-0.3,0.2-0.5,0.4-0.8,0.7c-0.5,0.4-0.9,0.9-1.3,1.3c-0.2,0.2-0.3,0.4-0.5,0.5
		c-0.1,0.2-0.3,0.3-0.3,0.4c-0.2,0.2-0.3,0.4-0.3,0.4s0.2,0,0.5,0.1c0.3,0,0.7,0,1.3,0c0.3,0,0.6,0,0.9-0.1c0.3-0.1,0.6-0.1,0.9-0.2
		c0.3-0.1,0.7-0.2,1-0.4c0.1,0,0.2-0.1,0.3-0.1c0.1,0,0.2-0.1,0.3-0.1c0.2-0.1,0.3-0.2,0.5-0.3c0.3-0.2,0.7-0.4,1-0.7
		c0.3-0.2,0.6-0.5,0.8-0.8c0.2-0.3,0.5-0.5,0.7-0.8c0.2-0.3,0.4-0.5,0.5-0.8c0.3-0.5,0.6-0.9,0.7-1.2c0.1-0.3,0.2-0.5,0.2-0.5
		s-0.2,0-0.5,0.1C85.5,61.2,85.4,61.3,85.2,61.3z"/>
	<path class="st0" d="M81.9,54.3c0-0.2-0.1-0.3-0.2-0.5c-0.1-0.3-0.2-0.6-0.4-0.9c-0.3-0.6-0.6-1-0.9-1.4c-0.3-0.4-0.6-0.7-0.8-0.9
		c-0.2-0.2-0.3-0.3-0.3-0.3s-0.2,0.6-0.3,1.5c-0.1,0.4-0.1,1-0.1,1.5c0,0.6,0,1.2,0.2,1.9c0.1,0.7,0.3,1.3,0.5,1.9
		c0.2,0.6,0.4,1.1,0.7,1.6c0.2,0.5,0.4,0.8,0.6,1.1c0.2,0.3,0.2,0.4,0.2,0.4s0.1-0.1,0.2-0.4c0.1-0.3,0.3-0.7,0.5-1.2
		c0.2-0.5,0.3-1.1,0.4-1.7c0-0.2,0-0.3,0-0.5c0-0.2,0-0.3,0-0.5c0-0.3,0-0.7-0.1-1C82,54.6,81.9,54.4,81.9,54.3z"/>
	<path class="st0" d="M87.5,53.1c-0.5,0.3-1,0.6-1.6,1c-0.3,0.2-0.6,0.4-0.8,0.6c-0.1,0.1-0.3,0.2-0.4,0.4c-0.1,0.1-0.3,0.3-0.4,0.4
		c-0.3,0.3-0.5,0.5-0.7,0.8c-0.1,0.1-0.2,0.3-0.3,0.4c-0.1,0.1-0.2,0.3-0.3,0.4c-0.4,0.5-0.7,1.1-1,1.5c-0.3,0.4-0.4,0.8-0.6,1.1
		c-0.1,0.3-0.2,0.4-0.2,0.4s0.2,0,0.5-0.1c0.3,0,0.7-0.1,1.2-0.3c0.5-0.2,1.1-0.4,1.7-0.7c0.6-0.3,1.2-0.8,1.8-1.3
		c0.6-0.6,1-1.2,1.4-1.8c0.4-0.6,0.6-1.3,0.8-1.8c0.4-1.1,0.5-1.9,0.5-1.9s-0.2,0.1-0.5,0.2C88.3,52.7,87.9,52.9,87.5,53.1z"/>
	<path class="st0" d="M83.4,52.1c0.2,0.2,0.3,0.3,0.3,0.3s0.1-0.2,0.1-0.5c0-0.1,0.1-0.3,0.1-0.5c0-0.1,0-0.2,0.1-0.3
		c0-0.1,0-0.2,0-0.4c0-0.3,0-0.5,0-0.8c0-0.3,0-0.6-0.1-0.9c0-0.3-0.1-0.6-0.2-1c0-0.2-0.1-0.3-0.1-0.5c-0.1-0.2-0.1-0.3-0.2-0.5
		c-0.1-0.3-0.3-0.6-0.5-0.9c-0.2-0.3-0.4-0.5-0.6-0.8c-0.4-0.5-0.8-0.9-1.2-1.2c-0.2-0.2-0.4-0.3-0.5-0.4c-0.2-0.1-0.3-0.2-0.5-0.3
		c-0.3-0.1-0.4-0.2-0.4-0.2s0,0.2,0,0.4c0,0.3,0,0.6,0,1.1c0,0.2,0.1,0.5,0.1,0.7c0,0.3,0.1,0.5,0.1,0.8c0.1,0.3,0.1,0.6,0.2,0.9
		c0.1,0.3,0.2,0.6,0.3,0.9c0.1,0.3,0.3,0.6,0.4,0.9c0.1,0.3,0.3,0.6,0.5,0.8c0.3,0.5,0.7,1,1,1.4C82.9,51.6,83.2,51.9,83.4,52.1z"/>
	<path class="st0" d="M90,43.1c0,0-0.2,0.1-0.4,0.3c-0.1,0.1-0.3,0.2-0.4,0.4c-0.2,0.1-0.4,0.3-0.6,0.5c-0.4,0.4-0.9,0.8-1.3,1.3
		c-0.2,0.3-0.5,0.5-0.7,0.8c-0.2,0.3-0.4,0.6-0.6,0.9c-0.1,0.2-0.2,0.3-0.3,0.5c-0.1,0.2-0.2,0.3-0.3,0.5c-0.2,0.3-0.3,0.6-0.4,0.9
		c-0.1,0.3-0.2,0.6-0.3,0.9c-0.1,0.3-0.2,0.5-0.3,0.8c0,0.1-0.1,0.2-0.1,0.4c0,0.1-0.1,0.2-0.1,0.3c-0.1,0.2-0.1,0.4-0.1,0.5
		C84,52.4,84,52.5,84,52.5s0.2,0,0.5-0.2c0.3-0.1,0.7-0.3,1.2-0.5c0.5-0.3,1-0.6,1.5-1.1c0.3-0.2,0.5-0.5,0.8-0.8
		c0.2-0.3,0.5-0.6,0.7-0.9c0.2-0.3,0.4-0.7,0.6-1c0.2-0.3,0.3-0.7,0.4-1c0.1-0.3,0.2-0.7,0.3-1c0.1-0.3,0.1-0.6,0.1-0.9
		C90,44.5,90,44,90,43.7C90,43.3,90,43.1,90,43.1z"/>
	<path class="st0" d="M84.8,44.4c0,0,0-0.2,0-0.5c0-0.3,0-0.7-0.1-1.2c0-0.3-0.1-0.5-0.1-0.8c-0.1-0.3-0.2-0.6-0.3-0.9
		c-0.1-0.3-0.2-0.6-0.4-0.9c-0.2-0.3-0.3-0.6-0.6-0.9c-0.2-0.3-0.4-0.6-0.7-0.8c-0.2-0.2-0.5-0.5-0.7-0.6c-0.5-0.4-1-0.7-1.5-0.9
		c-0.5-0.2-0.9-0.4-1.1-0.4c-0.3-0.1-0.4-0.1-0.4-0.1s0,0.2,0.1,0.4c0,0.1,0.1,0.3,0.1,0.5c0,0.1,0.1,0.2,0.1,0.3
		c0,0.1,0.1,0.2,0.1,0.3c0.1,0.2,0.1,0.4,0.2,0.7c0.1,0.2,0.2,0.5,0.3,0.8c0.1,0.3,0.3,0.5,0.4,0.8c0.1,0.1,0.2,0.3,0.3,0.4
		c0.1,0.1,0.2,0.3,0.3,0.4c0.2,0.3,0.4,0.5,0.6,0.8c0.2,0.2,0.5,0.5,0.7,0.7c0.4,0.4,0.9,0.8,1.3,1.1c0.2,0.2,0.4,0.3,0.6,0.4
		c0.2,0.1,0.3,0.2,0.4,0.3C84.7,44.4,84.8,44.4,84.8,44.4z"/>
	<path class="st0" d="M86.2,37.9c-0.1,0.3-0.3,0.7-0.4,1c-0.1,0.4-0.2,0.7-0.3,1c-0.1,0.3-0.2,0.7-0.2,1c-0.1,0.3-0.1,0.6-0.1,0.9
		c0,0.3-0.1,0.6-0.1,0.8c0,0.5,0,0.9,0,1.3c0,0.3,0,0.5,0,0.5s0.2-0.1,0.4-0.3c0.1-0.1,0.3-0.2,0.5-0.3c0.2-0.1,0.4-0.3,0.5-0.5
		c0.4-0.4,0.8-0.8,1.2-1.4c0.2-0.3,0.4-0.6,0.6-0.9c0.2-0.3,0.3-0.7,0.5-1c0.1-0.2,0.1-0.4,0.2-0.6c0-0.2,0.1-0.4,0.1-0.6
		c0.1-0.4,0.1-0.7,0.2-1.1c0-0.4,0-0.7,0-1c0-0.3,0-0.6-0.1-0.9c0-0.1,0-0.3,0-0.4c0-0.1,0-0.3-0.1-0.4c0-0.2-0.1-0.4-0.1-0.6
		c-0.1-0.3-0.1-0.5-0.1-0.5s-0.1,0.1-0.3,0.4c-0.2,0.2-0.5,0.6-0.8,1c-0.3,0.4-0.7,1-1,1.6C86.5,37.3,86.4,37.6,86.2,37.9z"/>
	<path class="st0" d="M81.5,31.6c-0.6-0.5-1.1-0.8-1.7-1.1c-0.6-0.3-1.1-0.4-1.6-0.5c-0.5-0.1-0.9-0.2-1.2-0.2c-0.3,0-0.5,0-0.5,0
		s0.1,0.1,0.2,0.4c0.1,0.2,0.3,0.6,0.5,1c0.2,0.4,0.5,0.8,0.9,1.3c0.1,0.1,0.2,0.2,0.3,0.3c0.1,0.1,0.2,0.2,0.3,0.3
		c0.2,0.2,0.4,0.5,0.7,0.7c0.1,0.1,0.3,0.2,0.4,0.3c0.1,0.1,0.3,0.2,0.4,0.3c0.3,0.2,0.5,0.4,0.8,0.5c0.5,0.3,1.1,0.6,1.5,0.8
		c0.5,0.2,0.9,0.4,1.1,0.5c0.3,0.1,0.5,0.2,0.5,0.2s-0.1-0.7-0.4-1.7c-0.2-0.5-0.4-1-0.8-1.6C82.5,32.6,82.1,32.1,81.5,31.6z"/>
	<path class="st0" d="M83.9,34.6c0.1,1,0.4,1.7,0.4,1.7s0.1-0.1,0.3-0.3c0.2-0.2,0.5-0.5,0.8-1c0.3-0.4,0.6-1,0.9-1.6
		c0.1-0.3,0.3-0.6,0.4-1c0.1-0.2,0.1-0.4,0.1-0.6c0-0.2,0.1-0.4,0.1-0.6c0-0.4,0.1-0.8,0.1-1.2c0-0.2,0-0.4,0-0.6
		c0-0.2,0-0.4-0.1-0.5c-0.1-0.7-0.3-1.4-0.5-1.9c-0.2-0.6-0.4-1-0.5-1.3c-0.2-0.3-0.3-0.5-0.3-0.5s-0.1,0.2-0.2,0.4
		c-0.1,0.3-0.3,0.7-0.5,1.2c-0.2,0.5-0.4,1.1-0.6,1.7c-0.2,0.7-0.4,1.4-0.4,2.1c-0.1,0.7-0.1,1.5-0.1,2.1
		C83.7,33.5,83.8,34.1,83.9,34.6z"/>
	<path class="st0" d="M77.5,24.3c-0.1,0-0.2-0.1-0.2-0.1c-0.1,0-0.2-0.1-0.2-0.1c-0.3-0.1-0.6-0.2-0.9-0.3c-0.3-0.1-0.6-0.1-0.9-0.1
		c-0.3,0-0.6,0-0.8,0c-0.5,0-0.9,0-1.2,0.1c-0.3,0-0.5,0.1-0.5,0.1s0.1,0.1,0.2,0.3c0.1,0.1,0.2,0.2,0.3,0.4
		c0.1,0.1,0.3,0.3,0.4,0.5c0.3,0.3,0.7,0.7,1.1,1.1c0.2,0.2,0.5,0.4,0.7,0.5c0.3,0.2,0.5,0.3,0.8,0.5c0.3,0.2,0.6,0.3,0.9,0.4
		c0.3,0.1,0.6,0.2,0.9,0.3c0.6,0.2,1.2,0.4,1.7,0.5c0.3,0.1,0.5,0.1,0.7,0.1c0.2,0,0.4,0.1,0.5,0.1c0.3,0,0.5,0.1,0.5,0.1
		s-0.1-0.2-0.2-0.4c-0.1-0.3-0.3-0.7-0.6-1.1c-0.1-0.2-0.3-0.4-0.5-0.7c-0.2-0.2-0.4-0.5-0.6-0.7c-0.2-0.2-0.5-0.5-0.7-0.7
		c-0.3-0.2-0.6-0.4-0.9-0.6C77.8,24.5,77.7,24.4,77.5,24.3z"/>
	<path class="st0" d="M80,23.3c0,0.4,0.1,0.7,0.2,1.1c0.1,0.3,0.1,0.7,0.2,1c0.1,0.3,0.2,0.6,0.3,0.9c0.1,0.3,0.2,0.5,0.3,0.8
		c0.2,0.5,0.4,0.9,0.5,1.1c0.1,0.3,0.2,0.4,0.2,0.4s0.1-0.1,0.3-0.4c0.1-0.1,0.2-0.3,0.3-0.5c0-0.1,0.1-0.2,0.2-0.3
		c0-0.1,0.1-0.2,0.1-0.3c0.2-0.5,0.4-1.1,0.5-1.7c0.1-0.3,0.1-0.7,0.1-1.1c0-0.4,0-0.8,0-1.1c0-0.4-0.1-0.8-0.2-1.2
		c-0.1-0.4-0.2-0.7-0.3-1.1c-0.3-0.7-0.6-1.3-0.9-1.8c-0.1-0.3-0.3-0.5-0.4-0.7c-0.1-0.2-0.3-0.4-0.4-0.5c-0.2-0.3-0.4-0.4-0.4-0.4
		s-0.1,0.2-0.1,0.5c-0.1,0.3-0.2,0.7-0.3,1.3c0,0.3-0.1,0.5-0.1,0.9c0,0.3-0.1,0.6-0.1,1c0,0.3,0,0.7,0,1c0,0.2,0,0.4,0,0.5
		C80,22.9,80,23.1,80,23.3z"/>
	<path class="st0" d="M71,18.2c-0.6,0-1.2,0.1-1.7,0.2c-0.5,0.1-0.9,0.2-1.2,0.3c-0.3,0.1-0.4,0.2-0.4,0.2s0.1,0.1,0.3,0.3
		c0.2,0.2,0.5,0.4,0.9,0.7c0.2,0.1,0.4,0.3,0.6,0.4c0.2,0.1,0.5,0.3,0.7,0.4c0.3,0.1,0.5,0.3,0.8,0.4c0.3,0.1,0.6,0.2,0.9,0.3
		c0.3,0.1,0.7,0.2,1,0.2c0.3,0.1,0.6,0.1,0.9,0.1c0.3,0,0.6,0.1,0.9,0.1c0.3,0,0.6,0,0.8,0c0.5,0,0.9,0,1.2,0c0.3,0,0.5,0,0.5,0
		s-0.1-0.1-0.3-0.4c-0.1-0.1-0.2-0.3-0.3-0.4c-0.1-0.2-0.3-0.3-0.5-0.5c-0.2-0.2-0.4-0.4-0.6-0.5c-0.1-0.1-0.2-0.2-0.4-0.3
		c-0.1,0-0.1-0.1-0.2-0.1c-0.1,0-0.1-0.1-0.2-0.1c-0.3-0.2-0.6-0.3-0.9-0.5c-0.2-0.1-0.3-0.1-0.5-0.2c-0.2-0.1-0.3-0.1-0.5-0.2
		c-0.3-0.1-0.7-0.2-1-0.2c-0.2,0-0.3,0-0.5-0.1C71.3,18.2,71.1,18.2,71,18.2z"/>
	<path class="st0" d="M74.1,14.7c0,0.2,0.1,0.3,0.1,0.5c0,0.2,0.1,0.3,0.1,0.5c0.1,0.4,0.2,0.7,0.3,1.1c0.1,0.2,0.1,0.3,0.2,0.5
		c0.1,0.2,0.1,0.3,0.2,0.5c0.1,0.3,0.3,0.6,0.5,0.9c0,0.1,0.1,0.1,0.1,0.2c0,0.1,0.1,0.1,0.1,0.2c0.1,0.1,0.2,0.3,0.2,0.4
		c0.2,0.3,0.3,0.5,0.5,0.7c0.2,0.2,0.3,0.4,0.4,0.6c0.1,0.2,0.2,0.3,0.3,0.4c0.2,0.2,0.3,0.4,0.3,0.4s0.1-0.2,0.2-0.5
		c0.1-0.3,0.2-0.7,0.3-1.2c0-0.3,0.1-0.5,0.1-0.8c0-0.3,0-0.6,0-1c0-0.3,0-0.7-0.1-1.1c-0.1-0.4-0.2-0.7-0.3-1.1
		c-0.1-0.4-0.3-0.7-0.4-1.1c-0.2-0.3-0.4-0.7-0.6-1c-0.2-0.3-0.4-0.6-0.6-0.8c-0.2-0.3-0.4-0.5-0.6-0.7c-0.4-0.4-0.8-0.7-1.1-1
		c-0.3-0.2-0.4-0.3-0.4-0.3s0,0.2,0,0.5c0,0.3,0,0.8,0,1.3C73.9,13.4,74,14,74.1,14.7z"/>
	<path class="st0" d="M63.7,16.1c0.2,0.1,0.5,0.2,0.8,0.2c0.1,0,0.1,0,0.2,0c0.1,0,0.1,0,0.2,0.1c0.1,0,0.3,0.1,0.5,0.1
		c0.3,0.1,0.6,0.1,1,0.1c0.7,0.1,1.3,0,2,0c0.6-0.1,1.2-0.2,1.7-0.3c0.5-0.1,0.9-0.2,1.2-0.3c0.3-0.1,0.5-0.1,0.5-0.1s0,0-0.1-0.1
		c-0.1-0.1-0.1-0.1-0.3-0.2c-0.2-0.2-0.6-0.5-1-0.7c-0.9-0.5-2.2-1.1-3.6-1.2c-0.4,0-0.7,0-1,0c-0.3,0-0.7,0.1-1,0.2
		c-0.2,0-0.3,0.1-0.4,0.1c-0.1,0-0.3,0.1-0.4,0.1c-0.3,0.1-0.5,0.2-0.7,0.3c-0.5,0.2-0.8,0.4-1.1,0.6c-0.1,0.1-0.2,0.1-0.3,0.2
		c-0.1,0-0.1,0.1-0.1,0.1s0.1,0.1,0.4,0.2c0.2,0.1,0.6,0.3,1,0.4C63.2,15.9,63.4,16,63.7,16.1z"/>
	<path class="st0" d="M66.1,6.7C66.1,7,66.2,7.4,66.4,8c0.1,0.3,0.2,0.5,0.3,0.8c0.1,0.1,0.1,0.3,0.2,0.4c0.1,0.2,0.1,0.3,0.2,0.5
		c0.1,0.3,0.3,0.6,0.4,1c0.2,0.3,0.3,0.6,0.5,1c0.8,1.3,1.7,2.3,2.5,3c0.4,0.4,0.7,0.6,1,0.8c0.1,0.1,0.2,0.2,0.3,0.2
		c0.1,0,0.1,0.1,0.1,0.1s0-0.2,0.1-0.5c0-0.3,0-0.7,0-1.3c0-0.5-0.1-1.1-0.3-1.8c-0.2-0.6-0.5-1.3-0.9-2c-0.2-0.3-0.4-0.7-0.7-0.9
		C70,9,69.8,8.9,69.7,8.7c-0.1-0.1-0.1-0.1-0.2-0.2c-0.1-0.1-0.1-0.1-0.2-0.2c-0.3-0.2-0.5-0.5-0.8-0.7c-0.3-0.2-0.5-0.4-0.8-0.6
		c-0.5-0.3-0.9-0.5-1.3-0.7c-0.2-0.1-0.3-0.1-0.4-0.2C66,6.2,66,6.2,66,6.2s0,0,0,0.1C66,6.4,66,6.5,66.1,6.7z"/>
	<path class="st0" d="M57.4,7.6c0.4,0.4,0.9,0.8,1.4,1.2c0.3,0.2,0.6,0.4,0.8,0.6c0.3,0.2,0.6,0.4,0.9,0.6c0.2,0.1,0.3,0.2,0.5,0.3
		c0.1,0,0.2,0.1,0.2,0.1c0.1,0,0.2,0.1,0.2,0.1c0.3,0.1,0.6,0.3,1,0.4c0.6,0.2,1.2,0.4,1.7,0.5c0.3,0.1,0.5,0.1,0.7,0.1
		c0.2,0,0.4,0.1,0.5,0.1c0.3,0.1,0.5,0.1,0.5,0.1s-0.1-0.2-0.2-0.4c-0.1-0.3-0.3-0.7-0.6-1.1c-0.3-0.4-0.7-0.9-1.1-1.4
		c-0.1-0.1-0.2-0.2-0.4-0.4c-0.1-0.1-0.3-0.2-0.4-0.3c-0.3-0.2-0.6-0.4-1-0.6c-0.7-0.4-1.4-0.7-2.1-0.9c-0.2,0-0.4-0.1-0.5-0.1
		c-0.2,0-0.3-0.1-0.5-0.1c-0.3,0-0.7-0.1-0.9-0.1c-0.3,0-0.6,0-0.8,0c-0.2,0-0.5,0-0.6,0c-0.3,0-0.5,0.1-0.5,0.1s0.1,0.1,0.3,0.4
		C56.7,6.9,57,7.2,57.4,7.6z"/>
	<polygon class="st0" points="43.3,7.5 45.8,6.2 48.3,7.5 47.8,4.8 49.8,2.9 47,2.5 45.8,0 44.5,2.5 41.8,2.9 43.8,4.8 	"/>
	<polygon class="st0" points="46.5,84.1 45.1,81.3 43.6,84.1 40.4,84.6 42.7,86.8 42.2,90 45.1,88.5 48,90 47.4,86.8 49.8,84.6 	"/>
	<path class="st0" d="M45,26c-10.5,0-19,8.5-19,19c0,10.5,8.5,19,19,19c10.5,0,19-8.5,19-19C64,34.5,55.5,26,45,26z M50.4,29.3
		c3.8,1.3,7,3.9,9,7.4l0.7,1.1h-7.7l-0.1-0.6c-0.6-2.5-1.5-4.8-2.7-6.9l-0.9-1.7L50.4,29.3z M50.7,45c0,1.5-0.2,2.9-0.3,4.1
		l-0.1,0.7H39.7l-0.1-0.7c-0.2-1.2-0.3-2.6-0.3-4.1c0-1.2,0.1-2.4,0.3-4.1l0.1-0.7h10.6l0.1,0.7C50.6,42.6,50.7,43.8,50.7,45z
		 M45,27.9l0.6,0.9c1.7,2.5,3,5.2,3.9,8l0.3,1h-9.6l0.3-1c0.9-2.9,2.2-5.6,3.9-8L45,27.9z M30.7,36.7c2-3.5,5.2-6.1,9-7.4l1.8-0.6
		l-0.9,1.7c-1.1,2.1-2,4.4-2.7,6.9l-0.1,0.6H30L30.7,36.7z M29,49.1c-0.4-1.4-0.5-2.8-0.5-4.1c0-1.3,0.2-2.7,0.5-4.1l0.1-0.6h8.1
		l-0.1,0.8c-0.1,1-0.3,2.4-0.3,3.9c0,1.4,0.1,2.8,0.3,3.9l0.1,0.8h-8.1L29,49.1z M39.6,60.7c-3.8-1.3-7-3.9-9-7.4L30,52.1h7.7
		l0.1,0.6c0.6,2.4,1.5,4.8,2.7,6.9l0.9,1.7L39.6,60.7z M45.6,61.2L45,62.1l-0.6-0.9c-1.7-2.5-3-5.2-3.9-8l-0.3-1h9.6l-0.3,1
		C48.6,56,47.3,58.7,45.6,61.2L45.6,61.2z M59.3,53.3c-2,3.5-5.2,6.1-9,7.4l-1.8,0.6l0.9-1.7c1.1-2.1,2-4.4,2.7-6.9l0.1-0.6H60
		L59.3,53.3z M60.9,49.7h-8.1l0.1-0.8c0.1-1,0.3-2.4,0.3-3.9c0-1.5-0.1-2.8-0.3-3.9l-0.1-0.8h8.1l0.1,0.6c0.4,1.4,0.5,2.8,0.5,4.1
		c0,1.3-0.2,2.7-0.5,4.1L60.9,49.7z"/>
</g>
</svg>
