<svg id="Layer_1" xmlns="http://www.w3.org/2000/svg" viewBox="0 0 88 15.1"><style>.st0{fill:#8492a6}</style><g id="XMLID_1_"><path id="XMLID_3_" class="st0" d="M13 14.8L13 5 9.3 14.8 7.6 14.8 3.8 5 3.8 14.8 0 14.8 0 0 5.3 0 8.4 8.2 11.5 0 16.8 0 16.8 14.8z"/><path id="XMLID_6_" class="st0" d="M24.4 14.8v-1.1c-.7.8-2 1.3-3.3 1.3-1.6 0-3.7-1.1-3.7-3.5 0-2.6 2-3.5 3.7-3.5 1.4 0 2.7.5 3.3 1.3v-1c0-.9-.8-1.6-2.2-1.6-1.1 0-2.1.4-3 1.2l-1.3-2.4c1.4-1.2 3.2-1.7 4.9-1.7 2.6 0 5 1 5 4.3v6.7h-3.4zm0-2.8v-1c-.4-.5-1.2-.8-1.9-.8-.9 0-1.7.4-1.7 1.2 0 .8.8 1.2 1.7 1.2.7.2 1.5 0 1.9-.6"/><path id="XMLID_7_" class="st0" d="M28 13.4l1.4-2.4c.8.7 2.5 1.4 3.8 1.4 1 0 1.4-.3 1.4-.8 0-1.3-6.2 0-6.2-4.3 0-1.9 1.6-3.5 4.6-3.5 1.8 0 3.3.6 4.5 1.4l-1.3 2.4c-.6-.6-1.9-1.2-3.1-1.2-.8 0-1.3.3-1.3.7 0 1.2 6.2 0 6.2 4.3 0 2-1.8 3.5-4.9 3.5-2 .2-3.9-.5-5.1-1.5"/><path id="XMLID_8_" class="st0" d="M45.6 14.8V8.6c0-1.3-.7-1.7-1.8-1.7-1 0-1.7.6-2.1 1v6.9h-3.4V0h3.4v5.4c.6-.8 1.9-1.6 3.7-1.6 2.4 0 3.5 1.4 3.5 3.3v7.6h-3.3z"/><path id="XMLID_11_" class="st0" d="M56.5 14.8v-1.1c-.7.8-2 1.3-3.3 1.3-1.6 0-3.7-1.1-3.7-3.5 0-2.6 2-3.5 3.7-3.5 1.4 0 2.7.5 3.3 1.3v-1c0-.9-.8-1.6-2.2-1.6-1.1 0-2.1.4-3 1.2L50 5.5c1.4-1.2 3.2-1.7 4.9-1.7 2.6 0 5 1 5 4.3v6.7h-3.4zm0-2.8v-1c-.4-.5-1.2-.8-1.9-.8-.9 0-1.7.4-1.7 1.2 0 .8.8 1.2 1.7 1.2.8.2 1.6 0 1.9-.6"/><path id="XMLID_14_" class="st0" d="M61.1 14.8V0h3.4v5.3c.8-1.1 2-1.5 3.2-1.5 2.7 0 4.7 2.1 4.7 5.6 0 3.6-2.1 5.6-4.7 5.6-1.2 0-2.3-.5-3.2-1.5v1.2h-3.4zm5.5-2.8C68 12 69 11 69 9.4s-1-2.6-2.4-2.6c-.7 0-1.6.4-2 1v3.3c.4.6 1.3.9 2 .9"/><path id="XMLID_15_" class="st0" d="M72.9 0H76.30000000000001V14.8H72.9z"/><path id="XMLID_18_" class="st0" d="M76.8 9.4c0-3.1 2.3-5.6 5.7-5.6 3.2 0 5.5 2.3 5.5 6v.8h-7.6c.2 1 1.1 1.8 2.7 1.8.8 0 2-.3 2.6-.9l1.5 2.2c-1.1 1-2.8 1.4-4.5 1.4-3.3 0-5.9-2.2-5.9-5.7m5.7-2.8c-1.5 0-2.1.9-2.2 1.7h4.4c0-.8-.6-1.7-2.2-1.7"/></g></svg>