<svg id="Layer_1" xmlns="http://www.w3.org/2000/svg" viewBox="0 0 105 15"><style>.st0{fill:#8492a6}</style><path class="st0" d="M41.9 3.7L34.7 3.7 34.7 5.9 37.1 5.9 37.1 12.5 39.5 12.5 39.5 5.9 41.9 5.9z"/><path class="st0" d="M44.6 5.8c-1.7 0-3 1.2-3 3.4 0 2 1.1 3.4 3 3.4 1 0 1.8-.3 2.6-.8l-.9-1.4c-.6.3-1.1.5-1.7.5-.6 0-1-.3-1.1-1h3.8v-.4c.2-2.5-.9-3.7-2.7-3.7zm-.9 2.7c.1-.7.4-1 .9-1 .7 0 .9.3 1 1h-1.9zm8 2.3c-.6 0-.9-.5-.9-1.6 0-1 .3-1.6.9-1.6.5 0 .7.3 1 .9l1.5-1.2c-.6-.9-1.3-1.5-2.5-1.5-2.1 0-3.1 1.4-3.1 3.4 0 2.2 1.1 3.4 3 3.4 1.1 0 1.9-.4 2.6-1.6l-1.4-1c-.4.6-.7.8-1.1.8zm7.6-5c-.8 0-1.2.3-1.6.6v-3l-2.2.9v8.2h2.2V8.7c0-.8.3-1.1.8-1.1s.7.2.7 1.1v3.7h2.2v-4c0-1.6-.7-2.6-2.1-2.6zm7.5 4.7c-1 0-1.5-1.1-1.5-2.4 0-1.4.4-2.4 1.4-2.4.8 0 1.1.5 1.4 1.3l2.2-.9c-.6-1.7-1.4-2.6-3.6-2.6-2.3 0-3.9 1.7-3.9 4.5 0 2.6 1.4 4.5 3.9 4.5 2 0 3-1.1 3.6-2.3l-2-1.1c-.5 1-.8 1.4-1.5 1.4zm7.1-4.1v-.5h-2.2v6.6h2.2V8.9c0-.8.3-1.1.9-1.1.4 0 .8.2 1 .5l.5-2.3c-.3-.2-.6-.3-1-.3-.6.1-1 .3-1.4.7zm7.2 3.3c0 .8-.3 1.1-.7 1.1s-.7-.2-.7-1.1V5.9h-2.2v4c0 1.7.7 2.7 2.1 2.7.8 0 1.2-.3 1.6-.6v.4h2.2V5.9h-2.2v3.8zm7.7-3.9c-.8 0-1.2.3-1.6.6v-.5H85v6.6h2.2V8.7c0-.8.3-1.1.8-1.1s.7.2.7 1.1v3.7h2.2v-4c0-1.6-.7-2.6-2.1-2.6zm6.5 5c-.6 0-.9-.5-.9-1.6 0-1 .3-1.6.9-1.6.5 0 .7.3 1 .9l1.5-1.2c-.6-.9-1.3-1.5-2.5-1.5-2.1 0-3.1 1.4-3.1 3.4 0 2.2 1.1 3.4 3 3.4 1.1 0 1.9-.4 2.6-1.6l-1.4-1c-.4.6-.7.8-1.1.8zm7.6-5c-.8 0-1.2.3-1.6.6v-3l-2.2.9v8.2h2.2V8.7c0-.8.3-1.1.8-1.1s.7.2.7 1.1v3.7h2.2v-4c0-1.6-.7-2.6-2.1-2.6z"/><path class="st0" d="M0 0L0 5 4.9 5 4.9 15 9.9 15 9.9 5 14.8 5 14.8 0z"/><path class="st0" d="M14.8 15L29.6 15 29.6 10 19.7 10 19.7 5 14.8 5z"/><path class="st0" d="M19.7 0H29.6V5H19.7z"/></svg>