<svg id="Layer_1" xmlns="http://www.w3.org/2000/svg" viewBox="0 0 125 28"><style>.st0{enable-background:new}.st1{fill:#8492a6}</style><g class="st0"><path class="st1" d="M40.6 11.9h-1.7v5c0 .1-.1.2-.2.2h-.9c-.1 0-.2-.1-.2-.2v-5h-1.7c-.1 0-.2-.1-.2-.2V11c0-.1.1-.2.2-.2h4.7c.1 0 .2.1.2.2v.7c0 .1-.1.2-.2.2m6.3 5.2H46c-.1 0-.2-.1-.2-.2v-2.5H43v2.5c0 .1-.1.2-.2.2h-.9c-.1 0-.2-.1-.2-.2V11c0-.1.1-.2.2-.2h.9c.1 0 .2.1.2.2v2.3h2.8V11c0-.1.1-.2.2-.2h.9c.1 0 .2.1.2.2v5.9c-.1.1-.1.2-.2.2zm4.3.1c-1.4 0-2.8-.8-2.8-2.7v-.9c0-1.9 1.3-2.7 2.8-2.7 1.4 0 2.8.8 2.8 2.7v.9c-.1 1.9-1.4 2.7-2.8 2.7zm1.5-3.7c0-1.2-.7-1.7-1.5-1.7-.9 0-1.5.5-1.5 1.7v.9c0 1.2.7 1.7 1.5 1.7.9 0 1.5-.5 1.5-1.7v-.9zm8.7 3.6h-.9c-.1 0-.1-.1-.1-.2v-3.8-.1.1L59 16.2c-.1.1-.2.1-.3.1h-.5c-.1 0-.2-.1-.3-.1l-1.4-3.1V13v3.9c0 .1-.1.2-.1.2h-.9c-.1 0-.1 0-.1-.1v-5.7c0-.2.2-.4.3-.4h.7c.1 0 .3.1.3.2l1.7 3.4c0 .1.1.1.1.1s.1 0 .1-.1l1.7-3.4c.1-.1.2-.2.3-.2h.7c.2 0 .3.2.3.4V17c0 .1-.1.1-.2.1zm19.1 0h-.9c-.2 0-.4 0-.5-.3l-2.4-4c0-.1-.1-.1-.1-.1V16.9c0 .1-.1.2-.2.2h-.7c-.1 0-.2-.1-.2-.2v-5.7c0-.2.2-.4.3-.4h.9c.2 0 .3.1.4.3l2.5 4.2s0 .1.1.1V11c0-.1.1-.2.2-.2h.7c.1 0 .2.1.2.2v5.7c.1.3-.1.4-.3.4zm-15.2.1c-.8 0-1.5-.1-2-.2-.1 0-.2-.1-.2-.2v-.6c0-.1.1-.2.2-.2.3 0 1.2.2 2 .2s1-.3 1-.8c0-.7-1.6-1-2.3-1.3-.8-.3-1-.9-1-1.5 0-1 .8-1.7 2.4-1.7.8 0 1.6.2 1.9.2.1 0 .2.1.2.2v.6c0 .1-.1.2-.1.2-.6-.1-1.2-.2-1.9-.2-.6 0-1.1.2-1.1.6 0 .3.3.6.7.7.4.2.9.4 1.5.6.7.3 1.2.7 1.2 1.6-.2.8-.8 1.8-2.5 1.8zm6.2 0c-1.4 0-2.8-.8-2.8-2.7v-.9c0-1.9 1.3-2.7 2.8-2.7 1.4 0 2.8.8 2.8 2.7v.9c-.1 1.9-1.4 2.7-2.8 2.7zm1.5-3.7c0-1.2-.7-1.7-1.5-1.7-.9 0-1.5.5-1.5 1.7v.9c0 1.2.7 1.7 1.5 1.7.9 0 1.5-.5 1.5-1.7v-.9zm16.9 3.6h-1.1c-.1 0-.1-.1-.2-.2l-1.3-2.1H86V17c0 .1-.1.2-.2.2H85c-.1 0-.2-.1-.2-.2v-5.7c0-.2.1-.2.3-.3.5-.1 1.4-.1 2.1-.1 1.3 0 2.6.5 2.6 2v.1c0 .9-.5 1.4-1.2 1.7L90 17v.1h-.1zm-1.3-4.3c0-.7-.5-.9-1.4-.9h-1.1v1.9h1.1c.9 0 1.4-.2 1.4-1zm3.7 2.6c0 .7 0 .8.7.8h2.2c.1 0 .2.1.2.2v.6c0 .1 0 .2-.2.2-.3 0-.8.1-1.9.1-1.4 0-2.2 0-2.2-1.8v-2.8c0-1.8.8-1.8 2.2-1.8 1 0 1.6.1 1.9.1.1 0 .2.1.2.2v.6c0 .1-.1.2-.2.2H93c-.7 0-.7 0-.7.8v.8h2.8c.1 0 .2.1.2.2v.6c0 .1-.1.2-.2.2h-2.8v.8zm7 1.8c-1.4 0-2.6-.6-2.6-2.5v-3.6c0-.1.1-.2.2-.2h.9c.1 0 .2.1.2.2v3.6c0 1 .5 1.5 1.4 1.5.9 0 1.4-.5 1.4-1.5v-3.6c0-.1.1-.2.2-.2h.9c.1 0 .2.1.2.2v3.6c-.2 1.9-1.4 2.5-2.8 2.5zm8.3-5.3h-1.7v5c0 .1-.1.2-.2.2h-.9c-.1 0-.2-.1-.2-.2v-5h-1.7c-.1 0-.2-.1-.2-.2V11c0-.1.1-.2.2-.2h4.7c.1 0 .2.1.2.2v.7c0 .1-.1.2-.2.2zm11.8 5.2h-1.1c-.1 0-.1-.1-.2-.2l-1.3-2.1h-1.3V17c0 .1-.1.2-.2.2h-.9c-.1 0-.2-.1-.2-.2v-5.7c0-.2.1-.2.3-.3.5-.1 1.4-.1 2.1-.1 1.3 0 2.6.5 2.6 2v.1c0 .9-.5 1.4-1.2 1.7l1.4 2.3v.1c.1 0 .1 0 0 0zm-1.3-4.3c0-.7-.5-.9-1.4-.9h-1.1v1.9h1.1c.9 0 1.4-.2 1.4-1zm4.6 4.4c-.8 0-1.5-.1-2-.2-.1 0-.2-.1-.2-.2v-.6c0-.1.1-.2.2-.2.3 0 1.2.2 2 .2s1-.3 1-.8c0-.7-1.6-1-2.3-1.3-.8-.3-1-.9-1-1.5 0-1 .8-1.7 2.4-1.7.8 0 1.6.2 1.9.2.1 0 .2.1.2.2v.6c0 .1-.1.2-.1.2-.6-.1-1.2-.2-1.9-.2-.6 0-1.1.2-1.1.6 0 .3.3.6.7.7.4.2.9.4 1.5.6.7.3 1.2.7 1.2 1.6-.2.8-.7 1.8-2.5 1.8zm-12.8-1.8c0 .7 0 .8.7.8h2.2c.1 0 .2.1.2.2v.6c0 .1 0 .2-.2.2-.3 0-.8.1-1.9.1-1.4 0-2.2 0-2.2-1.8v-2.8c0-1.8.8-1.8 2.2-1.8 1 0 1.6.1 1.9.1.1 0 .2.1.2.2v.6c0 .1-.1.2-.2.2h-2.2c-.7 0-.7 0-.7.8v.8h2.8c.1 0 .2.1.2.2v.6c0 .1-.1.2-.2.2h-2.8v.8zm-89-6.5c-.4.4-1 .4-1.4 0-.4-.4-.4-1 0-1.4.4-.4 1-.4 1.4 0 .3.4.4 1 0 1.4m-9.6-2.2c-.2-.2-.5-.2-.7 0-.2.2-.2.5 0 .7.2.2.5.2.7 0 .2-.2.2-.5 0-.7zm2.4-.9c-.2-.2-.6-.2-.8 0-.2.2-.2.6 0 .8.2.2.6.2.8 0 .3-.2.3-.6 0-.8zm2.6-.2c-.3-.3-.8-.3-1 0-.3.3-.3.8 0 1.1.3.3.8.3 1 0 .3-.4.3-.8 0-1.1zm2.4.6c-.3-.3-.9-.3-1.2 0-.3.3-.3.9 0 1.2.3.3.9.3 1.2 0 .4-.3.4-.9 0-1.2zM9.3 8.3c-.1-.1-.4-.1-.5 0-.1.1-.1.4 0 .5.2.2.4.1.5 0 .1-.1.1-.4 0-.5zm12.3 8.8c-.2.2-.2.5 0 .7.2.2.5.2.7 0 .2-.2.2-.5 0-.7-.3-.2-.6-.2-.7 0zm.6-2.5c-.2.2-.2.6 0 .8.2.2.6.2.8 0 .2-.2.2-.6 0-.8-.2-.2-.6-.2-.8 0zM22 12c-.3.3-.3.8 0 1.1.3.3.8.3 1 0 .3-.3.3-.8 0-1.1-.3-.3-.7-.3-1 0zm-.9-2.4c-.3.3-.3.9 0 1.2.3.3.9.3 1.2 0 .3-.3.3-.9 0-1.2-.4-.3-.9-.3-1.2 0zm-.8 9.6c-.1.1-.1.4 0 .5.1.1.4.1.5 0 .1-.1.1-.4 0-.5-.2-.2-.4-.1-.5 0zm-10.2 1.2c.4-.4.3-1 0-1.4-.4-.4-1-.3-1.4 0-.4.4-.3 1 0 1.4.4.4 1 .4 1.4 0zM8 10.9c.2-.2.2-.5 0-.7-.2-.2-.5-.2-.7 0-.2.2-.2.5 0 .7.2.2.5.2.7 0zm-.6 2.5c.2-.2.2-.6 0-.8-.2-.2-.6-.2-.8 0-.2.2-.2.6 0 .8.2.2.6.2.8 0zm.2 2.6c.3-.3.3-.8 0-1.1-.3-.3-.8-.3-1 0-.3.3-.3.8 0 1.1.2.3.7.3 1 0zm.9 2.4c.3-.3.3-.9 0-1.2-.3-.3-.9-.3-1.2 0-.3.3-.3.9 0 1.2.3.3.9.3 1.2 0zm9.8 2.9c.2.2.5.2.7 0 .2-.2.2-.5 0-.7-.2-.2-.5-.2-.7 0-.2.2-.2.5 0 .7zm-2.4.9c.2.2.6.2.8 0 .2-.2.2-.6 0-.8-.2-.2-.6-.2-.8 0-.3.2-.3.6 0 .8zm-2.6.2c.3.3.8.3 1 0 .3-.3.3-.8 0-1.1-.3-.3-.8-.3-1.1 0-.2.4-.2.8.1 1.1zm-2.4-.6c.3.3.9.3 1.2 0 .3-.3.3-.9 0-1.2-.3-.3-.9-.3-1.2 0-.4.3-.4.9 0 1.2zm6.3-13.3c-.1.4-.5.6-.9.5-.4-.1-.6-.5-.5-.9.1-.4.5-.6.9-.5.4.1.6.5.5.9zM10 10.3c-.2-.1-.4.1-.5.3-.1.2.1.4.3.5.2.1.4-.1.5-.2 0-.4-.1-.6-.3-.6zm1.3-1.5c-.2-.1-.5.1-.6.3-.1.2.1.5.3.6.2.1.5-.1.6-.3.1-.2-.1-.5-.3-.6zm1.7-1c-.3-.1-.6.1-.7.4-.1.3.1.6.4.7.3.1.6-.1.7-.4 0-.3-.1-.6-.4-.7zm1.8-.4c-.3-.1-.7.1-.8.4-.1.3.1.7.4.8.3.1.7-.1.8-.4.1-.3-.1-.7-.4-.8zm-5.6 4.7c-.1 0-.3 0-.3.2 0 .1 0 .3.2.3.1 0 .3 0 .3-.2 0-.1-.1-.3-.2-.3zm11.1 1.6c-.1.2.1.4.2.5.2.1.4-.1.5-.3.1-.2-.1-.4-.2-.5-.2 0-.4.1-.5.3zm-.4-1.8c-.1.2.1.5.3.6.2.1.5-.1.6-.3.1-.2-.1-.5-.3-.6-.3-.1-.5 0-.6.3zm-1-1.7c-.1.3.1.6.4.7.3.1.6-.1.7-.4.1-.3-.1-.6-.4-.7-.3-.1-.6.1-.7.4zm-1.4-1.3c-.1.3.1.7.4.8.3.1.7-.1.8-.4.1-.3-.1-.7-.4-.8-.3-.1-.7.1-.8.4zm2.7 6.7c0 .1 0 .3.2.3.1 0 .3 0 .3-.2 0-.1 0-.3-.2-.3-.1 0-.3.1-.3.2zm-6.4 4.3c.1-.4-.1-.8-.5-.9-.4-.1-.8.1-.9.5-.1.4.1.8.5.9.4.2.8-.1.9-.5zm-4.6-5.6c.1-.2-.1-.4-.2-.5-.2-.1-.4.1-.5.3-.1.2.1.4.3.5.2 0 .4-.1.4-.3zm.5 1.8c.1-.2-.1-.5-.3-.6-.2-.1-.5.1-.6.3-.1.2.1.5.3.6.2.1.5 0 .6-.3zm1 1.7c.1-.3-.1-.6-.4-.7-.3-.1-.7.1-.7.4-.1.3.1.6.4.7.3.1.6-.1.7-.4zm1.4 1.3c.1-.3-.1-.7-.4-.8-.3-.1-.7.1-.8.4-.1.3.1.7.4.8.3.1.7-.1.8-.4zm7.5-1.4c.2.1.4-.1.5-.3.1-.2-.1-.4-.2-.5-.2-.1-.4.1-.5.3-.1.3 0 .5.2.5zm-1.3 1.5c.2.1.5-.1.6-.3.1-.2-.1-.5-.3-.6-.2-.1-.5.1-.6.3-.1.2 0 .5.3.6zm-1.7 1c.3.1.6-.1.7-.4.1-.3-.1-.6-.4-.7-.3-.1-.6.1-.7.4-.1.3.1.6.4.7zm-1.8.4c.3.1.7-.1.8-.4.1-.3-.1-.7-.4-.8-.3-.1-.7.1-.8.4-.2.3 0 .7.4.8zM13.3 9.9c.2.3 0 .6-.2.8-.3.2-.6 0-.8-.2-.2-.3 0-.6.2-.8.2-.2.6-.1.8.2zm-2.9 4.6c-.2.1-.2.3-.1.5s.3.2.5.1.2-.3.1-.5-.3-.2-.5-.1zm-.1-1.4c-.2.1-.3.3-.2.5.1.2.3.3.5.2.2-.1.3-.4.2-.5 0-.3-.3-.3-.5-.2zm.4-1.4c-.2.1-.3.4-.2.6.1.2.4.3.6.2.2-.1.3-.4.2-.6-.1-.2-.4-.3-.6-.2zm.7-1.2c-.3.1-.3.4-.2.7.1.2.4.3.7.2.3-.1.3-.5.2-.7-.1-.2-.4-.3-.7-.2zm-.5 5.3c-.1.1-.2.2-.1.4.1.1.2.2.4.1.1-.1.2-.3.1-.4-.1-.1-.3-.2-.4-.1zm6.6-4.8c.1.2.3.2.5.1s.2-.3.1-.5-.3-.2-.5-.1-.2.4-.1.5zm-1.2-.7c.1.2.4.3.5.2.2-.1.3-.3.2-.5-.1-.2-.3-.3-.5-.2-.2 0-.3.3-.2.5zM15 9.9c.1.2.4.3.6.2.2-.1.3-.4.2-.6-.1-.2-.4-.3-.6-.2-.3.1-.4.4-.2.6zm-1.4.1c.1.3.4.3.7.2.2-.1.3-.4.2-.7-.1-.2-.4-.3-.7-.2-.3.1-.4.4-.2.7zm4.7 2.1c.1.1.2.2.4.1.1-.1.2-.2.1-.4-.1-.1-.2-.2-.4-.1-.1.1-.1.2-.1.4zm-1 5.4c-.2-.3-.5-.4-.8-.2-.3.2-.4.5-.2.8.2.3.5.4.8.2.3-.1.4-.5.2-.8zm-5.2-.5c-.1-.2-.3-.2-.5-.1s-.2.3-.1.5.3.2.5.1c.1-.1.2-.4.1-.5zm1.2.7c-.1-.2-.3-.3-.5-.2-.2.1-.3.3-.2.5.1.2.3.3.5.2.2 0 .3-.3.2-.5zm1.3.4c-.1-.2-.4-.3-.6-.2-.2.1-.3.4-.2.6.1.2.4.3.6.2.3-.1.3-.4.2-.6zM16 18c-.1-.2-.4-.3-.7-.2-.2.1-.3.4-.2.7.1.2.4.3.7.2.3-.1.3-.4.2-.7zm3.2-4.5c.2-.1.2-.3.1-.5s-.3-.2-.5-.1-.2.3-.1.5c.1.1.3.2.5.1zm.1 1.4c.2-.1.3-.3.2-.5-.1-.2-.3-.3-.5-.2-.2.1-.3.3-.2.5 0 .3.3.3.5.2zm-.4 1.4c.2-.1.3-.4.2-.6-.1-.2-.4-.3-.6-.2-.2.1-.3.4-.2.6.1.2.4.3.6.2zm-.7 1.1c.2-.1.3-.4.2-.7-.1-.2-.4-.3-.7-.2-.2.1-.3.5-.2.7.1.3.4.4.7.2zm9.9-1.9c-.8 0-1.5-.7-1.5-1.5s.7-1.5 1.5-1.5 1.5.7 1.5 1.5-.7 1.5-1.5 1.5zM22.2 2.6c.1-.5-.2-.9-.6-1-.4-.1-.9.2-1 .6-.1.4.2.9.6 1 .5.1.9-.2 1-.6zm3 2.1c.1-.5-.3-1.1-.8-1.1-.5-.1-1.1.3-1.1.8-.1.5.3 1.1.8 1.1.5.1 1-.3 1.1-.8zm2.3 2.7c.1-.7-.4-1.3-1.1-1.4-.7-.1-1.3.4-1.4 1.1-.1.7.4 1.3 1.1 1.4.8.1 1.4-.4 1.4-1.1zm1.5 3.2c0-.8-.5-1.4-1.3-1.4s-1.4.5-1.4 1.3.5 1.4 1.3 1.4c.7 0 1.4-.5 1.4-1.3zM15.4.6c0-.3-.3-.6-.6-.6s-.6.3-.6.6.3.6.6.6.6-.3.6-.6zm5.9 24.2c-.4.1-.7.5-.6 1 .1.4.5.7 1 .6.4-.1.7-.5.6-1-.2-.4-.6-.7-1-.6zm2.7-2.3c-.5.1-.9.6-.8 1.1.1.5.6.9 1.1.8.5-.1.9-.6.8-1.1 0-.5-.5-.9-1.1-.8zm2.2-3c-.7.1-1.2.7-1.1 1.4.1.7.7 1.2 1.4 1.1.7-.1 1.2-.7 1.1-1.4-.1-.7-.7-1.2-1.4-1.1zm1.4-3.4c-.8 0-1.3.7-1.3 1.4 0 .8.7 1.3 1.4 1.3.8 0 1.3-.7 1.3-1.4 0-.8-.7-1.3-1.4-1.3zM14.8 26.8c-.3 0-.6.3-.6.6s.3.6.6.6.6-.3.6-.6-.3-.6-.6-.6zM1.5 15.5c.8 0 1.5-.7 1.5-1.5s-.7-1.5-1.5-1.5S0 13.2 0 14s.7 1.5 1.5 1.5zM8.3 3.2c.4-.1.7-.5.6-1-.1-.4-.5-.7-.9-.6-.4.1-.7.5-.6 1 0 .4.5.7.9.6zM5.5 5.5c.5-.1.9-.6.8-1.1 0-.6-.5-1-1.1-.9-.5.1-.9.6-.8 1.2.1.5.6.9 1.1.8zm-2.1 3c.7-.1 1.2-.7 1.1-1.4-.1-.6-.7-1.1-1.4-1-.6 0-1.1.6-1.1 1.3.1.7.7 1.2 1.4 1.1zM2 11.9c.8 0 1.3-.7 1.3-1.4 0-.8-.7-1.3-1.4-1.3-.8 0-1.3.7-1.3 1.4 0 .8.7 1.3 1.4 1.3zm5.3 13.5c-.1.4.2.9.6 1 .4.1.9-.2 1-.6.1-.4-.2-.9-.6-1-.4-.1-.9.2-1 .6zm-2.9-2.1c-.1.5.3 1.1.8 1.1.5.1 1.1-.3 1.1-.8.1-.5-.3-1.1-.8-1.1-.5-.1-1 .3-1.1.8zM2 20.6c-.1.7.4 1.3 1.1 1.4.7.1 1.3-.4 1.4-1.1.1-.7-.4-1.3-1.1-1.4-.7-.1-1.3.4-1.4 1.1zM.6 17.4c0 .8.5 1.4 1.3 1.4s1.4-.5 1.4-1.3-.5-1.4-1.3-1.4c-.7 0-1.4.5-1.4 1.3zm17.5 8.9c-.3.1-.5.4-.5.8.1.3.4.5.8.5.3-.1.5-.4.5-.8-.1-.4-.5-.6-.8-.5zm-6.6 0c-.3-.1-.7.1-.8.5-.1.3.1.7.5.8.3.1.7-.1.8-.5.1-.3-.1-.7-.5-.8zm7.4-25.1c.1-.3-.1-.7-.5-.8-.3-.1-.7.1-.8.5-.1.3.1.7.5.8.3.1.7-.1.8-.5zM12 .9c-.1-.3-.4-.5-.8-.5-.3.1-.5.4-.5.8.1.3.4.5.8.5.4-.1.6-.5.5-.8zm12.8 10c-.6.3-1.3 0-1.5-.6-.3-.6 0-1.3.6-1.5.6-.3 1.3 0 1.5.6.2.6 0 1.3-.6 1.5zm-8.2-7.4c-.1-.4-.4-.6-.8-.5-.3.1-.6.4-.5.8.1.3.4.6.8.5.4-.1.6-.5.5-.8zm2.8.6c-.1-.4-.5-.7-.9-.6-.4.1-.7.5-.6 1 .1.4.5.6.9.5.4-.1.7-.5.6-.9zm2.5 1.2c-.2-.5-.7-.8-1.2-.6-.5.2-.8.7-.6 1.2.2.5.7.8 1.2.6.5-.1.8-.7.6-1.2zm2 1.8c-.2-.6-.8-.8-1.4-.6-.6.2-.8.8-.6 1.4.2.6.8.8 1.4.6.6-.2.8-.8.6-1.4zM11.1 4.2c-.1-.2-.4-.3-.6-.2-.2.1-.3.4-.2.6.1.2.4.3.6.2.2-.1.3-.4.2-.6zm11.6 15.5c-.3.2-.4.6-.2.9.2.3.6.4.9.2.3-.2.4-.6.2-.9-.2-.3-.6-.4-.9-.2zm1.3-2.5c-.4.2-.5.7-.2 1.1.2.4.7.5 1.1.2.4-.2.5-.7.2-1.1-.2-.3-.7-.4-1.1-.2zm.6-2.8c-.5.3-.6.9-.4 1.3.3.5.9.6 1.3.4.5-.3.6-.9.4-1.3-.2-.5-.8-.7-1.3-.4zm0-2.9c-.5.3-.7.9-.5 1.4.3.5.9.7 1.4.5.5-.3.7-.9.5-1.4-.2-.5-.9-.7-1.4-.5zm-5.9 11.7c-.2.1-.3.4-.2.6.1.2.4.3.6.2.2-.1.3-.4.2-.6-.1-.2-.3-.3-.6-.2zm-13-4c.6-.3.9-.9.6-1.5-.3-.6-.9-.9-1.5-.6-.6.3-.9.9-.6 1.5.2.6.9.9 1.5.6zM6.8 8.3c.3-.2.4-.6.2-.9-.2-.3-.6-.4-.9-.2-.3.2-.4.6-.2.9.2.3.6.4.9.2zm-1.2 2.5c.4-.2.5-.7.2-1.1-.2-.4-.7-.5-1.1-.2-.4.2-.5.7-.2 1.1.2.3.7.4 1.1.2zm-.7 2.8c.5-.3.6-.9.4-1.3s-.8-.6-1.3-.4c-.5.3-.6.9-.4 1.3.3.5.9.7 1.3.4zm.1 2.9c.5-.3.7-.9.5-1.4-.3-.5-.9-.8-1.4-.5-.5.3-.7.9-.5 1.4.2.5.9.7 1.4.5zm8 8c.1.4.4.6.8.5.3-.1.6-.4.5-.8-.1-.3-.4-.6-.8-.5-.4.1-.6.5-.5.8zm-2.8-.6c.1.4.5.7.9.6.4-.1.7-.5.6-1-.1-.4-.5-.7-.9-.6-.5.2-.7.6-.6 1zm-2.5-1.2c.2.5.7.8 1.2.6.5-.2.8-.7.6-1.2-.2-.5-.7-.8-1.2-.6-.5.1-.8.7-.6 1.2zm-2.1-1.8c.2.6.8.8 1.4.6.6-.2.8-.8.6-1.4-.2-.6-.8-.8-1.4-.6-.5.2-.8.8-.6 1.4zm15.3.9c-.2.2-.3.5-.1.7.2.2.5.3.7.1.2-.2.3-.5.1-.7-.2-.2-.5-.3-.7-.1zm-4.7 2.1c-.3 0-.5.3-.4.6 0 .3.3.5.6.4.3 0 .5-.3.4-.6-.1-.3-.3-.5-.6-.4zM13.8 3.6c0-.3-.3-.5-.6-.4-.3 0-.5.3-.4.6 0 .3.3.5.6.4.2-.1.4-.3.4-.6zM8.7 5.5c-.1-.2-.4-.3-.7-.1-.2.2-.2.5 0 .7.2.2.5.3.7.1.2-.2.2-.5 0-.7z"/></g></svg>