<svg id="Layer_1" xmlns="http://www.w3.org/2000/svg" viewBox="0 0 82 36"><style>.st0{fill:#8492a6;enable-background:new}</style><path class="st0" d="M1.2 2.1C1 .8.8.6.4.5L0 .4V.1h3.9v.3h-.3c-.6.2-.6.9-.4 1.8l1.7 8.4L6.1 4l-.4-2.4C5.5.8 5.4.6 5 .5L4.7.4V.1h3.9v.3l-.5.1c-.7.1-.6.9-.4 1.7l1.6 8.4 1.6-7.9c.3-1.6.1-2-.5-2.2L10 .4V.1h2.9v.3l-.4.1c-.5.1-.6.5-.9 2L9 14.9h-.6l-2-9.7-1.8 9.7h-.7L1.2 2.1zm20.7 12.3h.8c1.8 0 2.3-2.2 2.5-4.4h.3v4.9H14.8v-.3l.4-.1c.9-.2.9-.4.7-1.7l-.4-1.9h-2.6l-.3 1.4c-.3 1.6-.1 2 .5 2.2l.4.1v.3h-2.9v-.3l.3-.1c.6-.2.7-.5 1-2L14.5 0h.6l2.7 12.8c.3 1.3.4 1.6 1.2 1.6.7 0 .9-.4.9-1v-12c0-.6-.2-.8-.6-.9l-.5-.1V.1H23v.3l-.6.1c-.4.1-.6.3-.6.9l.1 13zM13 10.3h2.4l-1.2-6.1-1.2 6.1zm16 4.1h.8c1.8 0 2.3-2.2 2.5-4.4h.3v4.9H26v-.3l.5-.1c.4-.1.6-.3.6-.9v-12c0-.6-.2-.8-.6-.9L26 .4V.1h4.2v.3l-.6.1c-.4.1-.6.3-.6.9v13zm10.6.5c-1.2 0-1.6-.9-2-.9-.2 0-.5.1-.7.8h-.3V9.9h.3c.3 2.7 1.3 4.5 2.7 4.5.9 0 1.6-.9 1.6-2.5 0-3.3-4.7-4.8-4.7-8.4 0-2 1-3.5 2.8-3.5 1.2 0 1.4.8 1.9.8.3 0 .5-.2.6-.7h.2V5h-.3c-.3-2.5-.9-4.5-2.4-4.5-1 0-1.3 1.1-1.3 1.8 0 3.2 4.7 4.3 4.7 8.7-.1 2.2-1.3 3.9-3.1 3.9zm7.7-1.5c0 .6.2.8.6.9l.5.1v.3h-4.2v-.3l.5-.1c.4-.1.6-.3.6-.9V.5h-.5c-1.3 0-1.8 2.2-2 4.4h-.3V.1h7.4V5h-.3c-.1-2.3-.7-4.4-2-4.4h-.5l.2 12.8zm3.2 1.1l.5-.1c.4-.1.6-.3.6-.9v-12c0-.6-.2-.8-.6-.9l-.5-.1V.1h4C56.3.1 58 1.3 58 3.7c0 1.9-.9 3.2-2.6 3.6 1.9.4 1.9 1.3 2.1 3.7l.1 1.9c.1 1.1.1 1.3.4 1.3.3 0 .4-.7.4-1.4v-.4h.3v.5c0 1.2-.3 2-1.5 2s-1.7-.7-1.8-3.1l-.1-2.7c0-1.3-.3-1.5-1-1.5h-1v5.9c0 .6.2.8.6.9l.5.1v.3h-4.1l.2-.3zm3-7.4h.7c1.2 0 1.8-.3 1.8-3.2S55.2.5 54.4.5h-.8v6.6zm8.5 7.3h1.5c1.9 0 2.3-2.2 2.5-4.4h.3v4.9H59v-.3l.5-.1c.4-.1.6-.3.6-.9v-12c0-.6-.2-.8-.6-.9L59 .4V.1h7.1V5h-.3c-.2-2.3-.7-4.4-2.3-4.4H62V7h.7c.9-.1 1.2-.9 1.5-2.7h.3v5.9h-.3c-.2-2.3-.5-2.7-1.5-2.7H62v6.9zm7.8 0h1.5c1.9 0 2.3-2.2 2.5-4.4h.3v4.9h-7.3v-.3l.5-.1c.4-.1.6-.3.6-.9v-12c0-.6-.2-.8-.6-.9l-.5-.1V.1h7.1V5h-.3c-.2-2.3-.7-4.4-2.3-4.4h-1.5V7h.7c.9-.1 1.2-.9 1.5-2.7h.3v5.9H72c-.2-2.3-.5-2.7-1.5-2.7h-.7v6.9zm9.4-.9c0 .7.2.8.6.9l.7.1v.3h-4.3v-.3l.5-.1c.4-.1.6-.3.6-.9V.5h-.5c-1.3 0-1.8 2.2-2 4.4h-.3V.1H82V5h-.3c-.1-2.3-.7-4.4-2-4.4h-.5v12.9zm-60.7 19c0 2.3-1.1 3.5-2.9 3.5-1.6 0-2.5-1.3-2.5-2.7 0-1.1.8-1.7 1.5-1.6.5.1.9.4.9 1.2-.1 1.1-1.2 1-1.2 1.7 0 .4.5 1 1.2 1 1.2 0 1.2-1.5 1.2-2.7V22.5c0-.6-.2-.8-.7-.9l-.5-.1v-.3h4.2v.3l-.5.1c-.4.1-.6.3-.6.9l-.1 10zm4.9 3.5c-2.5 0-3.7-3.4-3.7-7.5s1.2-7.4 3.7-7.4 3.7 3.4 3.7 7.4c0 4.1-1.1 7.5-3.7 7.5zm0-14.4c-1 0-1.6.9-1.6 6.9 0 6.2.5 7.1 1.6 7.1s1.6-.9 1.6-7.1c0-6.1-.5-6.9-1.6-6.9zm12 14l.5-.1c.4-.1.6-.3.6-.9v-12c0-.7-.3-1-1-1-.9 0-1.2.4-1.2 1.6v9.3c0 2.3-.8 3.5-2.8 3.5-2 0-3.2-1.2-3.2-3.5v-10c0-.6-.1-.8-.6-.9l-.5-.1v-.3h4.2v.3l-.6.1c-.5.1-.7.3-.7.9v10.2c0 2.1.6 2.6 1.7 2.6 1.3 0 1.8-.7 1.8-2.8V24c0-1.8 0-2.2-.8-2.4l-.4-.1v-.3h6.9c1.8 0 3.5 1.2 3.5 3.6 0 1.9-.9 3.2-2.6 3.6 1.9.4 1.9 1.3 2.1 3.7l.1 1.9c.1 1.1.1 1.3.4 1.3.3 0 .4-.7.4-1.4v-.4h.3v.5c0 1.2-.3 2-1.5 2s-1.7-.7-1.8-3.1l-.1-2.7c0-1.3-.3-1.5-1-1.5h-1v5.9c0 .6.2.8.6.9l.5.1v.3h-4.1l.3-.3zm3-7.4h.7c1.2 0 1.8-.3 1.8-3.2s-.8-3.4-1.6-3.4h-.8l-.1 6.6zm5.7-6.6l-.3-.1v-.3h2.8l3.8 9.7v-7c0-1.6 0-2.1-1.1-2.3l-.3-.1v-.3h3.1v.3l-.3.1c-.9.2-.8 1-.8 2.5v11.8h-.7l-4.8-11.7v9c0 1.7 0 2.2 1.3 2.4v.3h-3v-.3l.4-.1c.8-.2.8-.9.8-2.5V22.9c-.4-.8-.5-1.2-.9-1.3zm18.6 13.8h.8c1.8 0 2.3-2.2 2.5-4.4h.3v4.9H55.6v-.3l.4-.1c.9-.2.9-.4.7-1.7l-.4-1.9h-2.6l-.3 1.4c-.3 1.6-.1 2 .5 2.2l.4.1v.3h-2.9v-.3l.3-.1c.6-.2.7-.5 1-2l2.6-12.4h.7l2.7 12.8c.3 1.3.4 1.6 1.1 1.6.7 0 .9-.4.9-1v-12c0-.6-.2-.8-.6-.9l-.5-.1v-.3h4.2v.3l-.6.1c-.4.1-.6.3-.6.9l.1 12.9zm-8.9-4h2.4L55 25.3l-1.2 6.1z"/></svg>