<svg id="Layer_1" xmlns="http://www.w3.org/2000/svg" viewBox="0 0 101 34"><style>.st0{fill:#8492a6}</style><path class="st0" d="M32.6 26.9v.6h-3.1v2.2h2.8v.6h-2.8v3.3h-1.7v-6.7h4.8zm1.5 0h1.7v6.7h-1.7v-6.7zm3.3 0h.9l3.9 4.2v-4.2h1.1v6.9h-.8l-4.2-4.7v4.7h-1.1v-6.9h.2zm11-.1l3.1 6.9h-1.7l-.8-1.9h-2.7l-.9 1.9h-1.1l3.3-6.9h.8zm-1.7 4.3h2l-.9-2.1-1.1 2.1zm5.6-4.2h1.1l3.9 4.2v-4.2h1.1v6.9h-.8l-4.2-4.7v4.7h-1.1v-6.9zm21.1 0v.6H70v2.2h2.8v.6H70V33h3.4v.6h-5v-6.7h5zm-6 1.8c-.1-.2-.2-.3-.2-.5-1.1-1.6-3.4-2-5.2-.8-1.8 1.2-2.4 3.4-1.4 5.1 1.1 1.6 3.4 2 5.2.8.5-.3.9-.7 1.2-1.1l-.6-.4c-.1.2-.3.4-.5.6-1.1 1-2.8 1-3.7 0s-.7-2.7.4-3.7 2.8-1 3.7 0c.1.2.3.4.4.6l.7-.6zM99.7.3h-.3c-.7 0-1.5.4-1.5 1.5-.4 5.6-.9 11.1-1.6 16.4.5-.1.8 0 1.1.2.9-5.4 2.9-13.4 3.4-15.7.1-.3.2-.7.2-1 0-.8-.5-1.3-1.3-1.4zM46.1 2.5c.1 2.9.2 5.7.2 8.6-3.4.1-6.9.1-10.3 0 0-2.9.1-5.7.2-8.6-1 .2-2 .2-3.1 0 .3 6.2.2 12.3 0 18.4 1-.2 2-.3 3.1 0-.1-2.9-.2-5.7-.2-8.6 3.4 0 6.9-.1 10.3 0 0 2.9-.1 5.7-.2 8.6 1.1-.3 2.1-.2 3.1 0-.2-6.1-.3-12.3 0-18.4-1 .2-2.1.2-3.1 0zM18.5 0c-1.1.3-2.1.3-3.1 0-.9 1.6-4.1 6.9-6.2 10.3C7.2 6.8 4.7 2.8 3.1 0 1.8.3 1.3.3 0 0c2.5 3.8 6.6 11 8 13.4l-.2 9.9s.9-.1 1.5-.1c.7 0 1.5.1 1.5.1l-.2-9.9C13.1 8.9 17.4 1.6 18.5 0zm13.6 20.9c-1.9-3.5-5.6-12.5-7.9-18.4-.8.3-1.4.3-2.1 0-2.5 6.2-5.3 13.2-7.9 18.5 1.2-.3 2.3-.2 3 0 .7-1.7 1.4-3.5 2.1-5.4 2.5-.1 5.1-.1 7.6 0L29 21c1.1-.4 2.2-.3 3.1-.1zM23 5.6c1 2.8 2.1 5.7 3.3 8.6-2.2.1-4.4.1-6.6 0 1.4-3.4 2.7-6.6 3.3-8.6zm37.1-3.4c-6.5 0-10 4.1-10 9.5 0 5.9 3.7 9.4 10 9.4 6.7 0 10-4 10-9.4 0-5.9-4-9.5-10-9.5zm0 17.9c-4.4 0-6.9-3.1-6.9-8.4 0-5.9 3.2-8.3 6.7-8.4h.2c4 0 6.9 2.7 6.9 8.4s-2.9 8.4-6.9 8.4zm22.5-19c-6.5 0-11.5 3.7-11.5 10.5 0 5.6 3.3 10.6 11.5 10.6 7 0 11.5-3.8 11.5-10.5.1-6.3-4.1-10.6-11.5-10.6zm-8.4 10.5c0-7.2 4.5-9.4 8.4-9.4 4.9 0 8.5 3 8.5 9.5 0 7.1-4.4 9.4-8.5 9.4-4.4.1-8.4-2.5-8.4-9.5zm22 8.8c-1 0-1.5.7-1.5 1.5 0 .9.7 1.4 1.7 1.4.7 0 1.4-.4 1.4-1.5 0-.8-.7-1.4-1.6-1.4z"/><path class="st0" d="M14.1 20.9L14.1 20.9 14.1 20.9z"/></svg>